<?xml version="1.0" standalone="no"?>
<!DOCTYPE svg PUBLIC "-//W3C//DTD SVG 20010904//EN"
 "http://www.w3.org/TR/2001/REC-SVG-20010904/DTD/svg10.dtd">
<svg version="1.0" xmlns="http://www.w3.org/2000/svg"
 width="700.000000pt" height="700.000000pt" viewBox="0 0 700.000000 700.000000"
 preserveAspectRatio="xMidYMid meet">
<metadata>
Created by potrace 1.14, written by Peter Selinger 2001-2017
</metadata>
<g transform="translate(0.000000,700.000000) scale(0.100000,-0.100000)"
fill="#000000" stroke="none">
<path d="M1480 6990 c-169 -20 -292 -51 -440 -109 -211 -83 -387 -198 -555
-366 -212 -212 -353 -457 -430 -747 -55 -207 -53 -139 -51 -2303 2 -2154 -1
-2035 51 -2235 110 -427 400 -800 792 -1021 105 -59 252 -118 384 -153 201
-55 165 -54 2269 -54 1165 0 1979 4 2030 9 539 61 1015 382 1272 858 94 173
167 407 185 595 10 101 11 3989 1 4071 -36 292 -135 549 -305 788 -79 111
-258 288 -373 369 -171 121 -364 209 -563 258 -203 50 -148 49 -2242 48 -1078
0 -1989 -4 -2025 -8z"/>
</g>
</svg>
