<svg width="1840" height="430" viewBox="0 0 1840 430" fill="none" xmlns="http://www.w3.org/2000/svg">
<g clip-path="url(#clip0_1751_49871)">
<rect width="1840" height="430" fill="#0F111A"/>
<g clip-path="url(#clip1_1751_49871)">
<path d="M-127.307 1137.15L-124.435 1128.9C-123.564 1126.37 -122.704 1123.81 -121.854 1121.2C-118.411 1110.69 -114.99 1099.29 -111.703 1087.32C-98.4421 1039.12 -86.5704 980.263 -76.4302 912.37C-66.9329 848.789 -59.7891 783.3 -55.7559 722.976C-54.0658 697.701 -52.5002 673.317 -51.8055 652.804L-51.4012 641.108C-50.9139 626.955 -50.3955 612.313 -50.0948 597.803C-49.4416 566.98 -49.3897 526.502 -54.8538 486.73C-60.4734 446.206 -80.2043 406.705 -101.096 364.886C-114.15 338.753 -127.65 311.734 -137.842 283.811C-164.872 209.63 -169.465 128.674 -150.792 55.8604C-136.784 1.38086 -115.436 -40.1277 -99.8418 -70.4352C-97.5712 -74.8535 -95.4353 -79.0077 -93.4757 -82.8977C-79.2608 -111.178 -72.4488 -127.464 -72.3762 -127.623L-72.2207 -127.999L-71.6297 -128.105C-71.4016 -128.144 -48.3425 -132.193 -10.0525 -142.476C0.3573 -145.269 11.9905 -148.664 25.4485 -152.6C63.946 -163.841 116.679 -179.229 185.141 -193.065C258.331 -207.839 407.147 -230.063 581.552 -212.918C646.416 -206.525 712.835 -194.882 778.943 -178.324C807.311 -171.218 833.895 -163.636 859.608 -156.305C883.248 -149.569 905.581 -143.202 927.635 -137.668C976.397 -125.437 1023.24 -118.991 1070.84 -117.967C1097.82 -117.392 1127.59 -117.003 1162.51 -118.04C1198.35 -119.103 1241.34 -121.263 1297.8 -124.829C1412.09 -132.054 1523.42 -142.423 1628.68 -155.658C1683.64 -162.573 1734.48 -170.049 1779.79 -177.889C1827.23 -186.098 1865.4 -193.336 1872.89 -195.502L1872.92 -195.687C1872.93 -195.76 1872.97 -195.839 1872.99 -195.879L1873.68 -195.747C1873.81 -195.793 1873.92 -195.839 1874.01 -195.879V-196.434L1874.57 -196.42C1875.17 -196.381 1875.94 -196.235 1876.05 -195.694C1876.1 -195.423 1876.17 -195.159 1874.92 -194.697L1874.32 -190.536C1873.43 -184.321 1872.55 -177.935 1871.69 -171.39C1869.96 -158.287 1868.25 -144.2 1866.59 -129.518C1860.03 -71.4259 1854.32 -3.98851 1849.61 70.9052C1847.45 105.44 1845.59 139.974 1844.12 173.537C1842.71 205.714 1841.73 234.621 1841.23 259.447C1839.45 347.695 1849.11 413.058 1872.52 471.375C1874.37 475.998 1876.26 480.648 1878.16 485.337C1890.69 516.318 1903.66 548.356 1913.32 582.23C1925.39 624.61 1931.39 666.594 1931.13 707.013C1930.58 787.633 1905.15 856.919 1881.35 915.533C1841.31 1014.14 1840.87 1087.13 1840.87 1087.86V1088.52L1839.84 1088.54C1838.68 1088.56 1722.04 1090.69 1553.05 1104.7C1437.07 1114.31 1333.1 1116.76 1235.2 1112.17C1185.87 1109.85 1135.68 1105.46 1087.16 1101.21C1023.68 1095.65 958.034 1089.9 893.689 1088.75C838.675 1087.8 781.037 1087.22 717.469 1086.99C685.089 1086.87 656.815 1086.84 631.029 1086.88C601.479 1086.94 565.211 1087.66 520.161 1089.08C427.085 1092.01 324.076 1097.07 222.259 1103.72C114.875 1110.73 22.6698 1118.64 -51.7952 1127.25C-70.4996 1129.41 -88.2812 1131.65 -104.632 1133.9C-108.696 1134.46 -112.688 1135.02 -116.628 1135.59C-118.577 1135.88 -120.516 1136.16 -122.434 1136.44L-127.339 1137.17L-127.307 1137.15ZM-70.4685 -126.909C-71.5675 -124.32 -78.3898 -108.45 -91.4331 -82.4882C-93.3928 -78.5982 -95.5286 -74.4375 -97.7993 -70.0125C-113.362 -39.7513 -134.69 1.69786 -148.666 56.0783C-167.298 128.72 -162.715 209.492 -135.747 283.5C-125.576 311.371 -112.087 338.369 -99.0435 364.47C-78.1099 406.362 -58.3376 445.935 -52.7076 486.611C-47.2331 526.442 -47.285 566.967 -47.9382 597.823C-48.2492 612.339 -48.7573 626.981 -49.2446 641.141L-49.6489 652.837C-50.3436 673.357 -51.9196 697.753 -53.5993 723.035C-57.6325 783.379 -64.7866 848.895 -74.284 912.502C-84.4345 980.428 -96.3062 1039.33 -109.588 1087.56C-112.885 1099.54 -116.307 1110.96 -119.759 1121.48C-120.61 1124.09 -121.48 1126.67 -122.351 1129.2L-124.508 1135.35L-122.901 1135.11C-120.972 1134.83 -119.034 1134.54 -117.084 1134.26C-113.144 1133.69 -109.132 1133.12 -105.067 1132.56C-88.6959 1130.31 -70.8936 1128.06 -52.1581 1125.9C23.4164 1117.18 113.112 1109.48 222.062 1102.36C323.91 1095.71 426.96 1090.65 520.078 1087.71C565.159 1086.29 601.459 1085.57 631.039 1085.52C656.825 1085.47 685.11 1085.5 717.501 1085.62C781.079 1085.85 838.737 1086.43 893.772 1087.39C958.231 1088.53 1023.94 1094.29 1087.47 1099.85C1135.97 1104.1 1186.12 1108.49 1235.39 1110.81C1333.14 1115.39 1436.97 1112.95 1552.8 1103.35C1713.47 1090.03 1826.86 1087.45 1838.78 1087.2C1838.91 1079.67 1841.24 1008.98 1879.32 915.19C1903.08 856.655 1928.49 787.467 1929.02 707.006C1929.27 666.667 1923.3 624.768 1911.24 582.474C1901.6 548.653 1888.64 516.642 1876.12 485.68C1874.22 480.991 1872.33 476.335 1870.47 471.712C1847.01 413.276 1837.34 347.807 1839.11 259.427C1839.62 234.595 1840.58 205.687 1842 173.504C1843.48 139.934 1845.33 105.4 1847.5 70.8523C1852.21 -4.05457 1857.92 -71.4985 1864.48 -129.61C1866.14 -144.292 1867.85 -158.386 1869.58 -171.495C1870.44 -178.04 1871.32 -184.427 1872.22 -190.648L1872.7 -193.99C1868.86 -192.953 1860.72 -191.216 1843.63 -187.967C1826.52 -184.717 1803.46 -180.563 1780.38 -176.568C1735.02 -168.722 1684.13 -161.232 1629.12 -154.317C1523.8 -141.076 1412.41 -130.694 1298.05 -123.468C1241.56 -119.895 1198.53 -117.742 1162.64 -116.679C1127.65 -115.636 1097.83 -116.032 1070.8 -116.606C1022.95 -117.637 975.878 -124.116 926.878 -136.406C904.783 -141.954 882.429 -148.321 858.768 -155.07C833.076 -162.395 806.512 -169.963 778.197 -177.063C712.233 -193.587 645.97 -205.198 581.261 -211.577C407.281 -228.683 258.828 -206.512 185.815 -191.778C117.477 -177.968 64.8169 -162.593 26.361 -151.372C12.8822 -147.436 1.2386 -144.034 -9.20227 -141.234C-44.2471 -131.83 -66.6115 -127.616 -70.4581 -126.916L-70.4685 -126.909ZM1874.03 -195.826C1874.01 -195.793 1873.99 -195.753 1873.97 -195.707L1874.03 -195.826Z" fill="url(#paint0_linear_1751_49871)" fill-opacity="0.1"/>
<path d="M454.23 545.213C360.117 545.213 277.254 536.344 218.092 527.514C171.818 520.599 132.098 513.565 97.0527 507.357C66.5907 501.961 40.276 497.298 18.7722 494.399C-26.1121 488.35 -53.5673 487.359 -53.8369 487.346L-53.7229 485.985C-53.4429 485.992 -25.8529 486.989 19.2077 493.065C40.7841 495.978 67.1195 500.64 97.623 506.043C132.647 512.251 172.347 519.284 218.579 526.186C299.473 538.259 424.794 550.411 562.464 539.758C630.283 534.494 684.105 525.222 726.999 511.412C753.946 502.727 779.949 492.339 805.103 482.293C819.536 476.528 834.466 470.564 849.085 465.129C896.033 447.7 944.111 433.427 996.066 421.48C1058.55 407.122 1126.84 396.456 1199.06 389.779C1274.21 382.845 1353.87 381.563 1429.42 386.094C1491.83 389.845 1554.49 397.566 1615.7 409.051C1665.44 418.389 1706.83 428.745 1737.34 436.723C1754.34 441.168 1769.64 445.309 1783.15 448.954C1794.21 451.946 1803.76 454.522 1812.53 456.82C1849.76 466.568 1871.63 470.835 1871.84 470.874L1871.22 472.175C1871 472.136 1849.05 467.85 1811.72 458.075C1802.94 455.777 1793.39 453.194 1782.32 450.203C1768.82 446.557 1753.52 442.416 1736.54 437.978C1706.09 430.013 1664.76 419.671 1615.1 410.345C1554.04 398.887 1491.49 391.179 1429.23 387.435C1353.84 382.917 1274.37 384.192 1199.38 391.113C1127.3 397.777 1059.15 408.423 996.802 422.748C944.971 434.662 897.007 448.908 850.174 466.291C835.586 471.713 820.676 477.67 806.254 483.429C781.069 493.494 755.014 503.903 727.984 512.614C684.872 526.496 630.822 535.809 562.744 541.092C525.47 543.978 489.078 545.193 454.251 545.193L454.23 545.213Z" fill="url(#paint1_linear_1751_49871)" fill-opacity="0.1"/>
<path d="M453.338 521.609C338.551 521.609 244.054 507.185 190.533 496.69C124.653 483.765 72.5422 469.355 34.4906 458.841C19.4255 454.673 6.42367 451.08 -5.09549 448.194C-44.2669 438.374 -67.9481 434.682 -68.1865 434.649L-67.6888 433.328C-67.4504 433.367 -43.6448 437.073 -4.31787 446.933C7.2324 449.826 20.2653 453.432 35.3408 457.599C73.351 468.107 125.4 482.497 191.166 495.402C262.966 509.476 408.724 530.657 578.162 514.37C648.49 507.588 708.937 494.583 757.834 475.708C782.988 465.986 807.083 455.261 830.402 444.892C849.946 436.201 868.391 427.985 887.189 420.429C932.26 402.32 979.093 388.339 1026.35 378.881C1090.31 366.102 1154.1 357.06 1215.95 352.008C1367.42 339.671 1501.11 353.567 1586.58 367.403C1648.36 377.409 1697.98 388.101 1737.85 396.693C1756.12 400.63 1771.9 404.031 1785.65 406.666C1827.25 414.651 1852.13 417.543 1852.38 417.57L1852 418.91C1851.75 418.884 1826.76 415.978 1785.03 407.967C1771.25 405.319 1755.46 401.917 1737.17 397.981C1697.33 389.395 1647.74 378.716 1586.05 368.717C1500.76 354.914 1367.35 341.045 1216.21 353.355C1154.48 358.395 1090.82 367.416 1026.97 380.176C979.881 389.6 933.224 403.529 888.309 421.579C869.552 429.121 851.118 437.323 831.604 446.008C808.266 456.397 784.138 467.136 758.923 476.877C709.787 495.845 649.071 508.915 578.463 515.724C534.906 519.911 492.893 521.628 453.318 521.628L453.338 521.609Z" fill="url(#paint2_linear_1751_49871)" fill-opacity="0.1"/>
<path d="M448.952 489.94C416.24 489.94 383.621 488.844 351.625 486.645C283.972 481.982 217.739 472.492 154.762 458.431C101.158 446.457 59.4984 433.341 32.8312 424.511C12.022 417.629 -5.41742 411.454 -20.804 406.005C-27.0146 403.806 -32.7793 401.765 -38.1294 399.909C-72.0751 388.107 -92.0237 382.745 -92.2207 382.692L-91.3912 381.437C-91.1942 381.49 -71.1523 386.872 -37.1029 398.714C-31.7529 400.57 -25.9881 402.611 -19.7671 404.816C-4.39096 410.258 13.0381 416.427 33.8162 423.302C60.4212 432.106 101.988 445.196 155.467 457.143C218.289 471.171 284.355 480.641 351.853 485.291C433.182 490.878 518.627 489.313 598.981 480.767C674.514 472.703 741.856 456.991 799.13 434.067C825.093 423.665 849.271 412.913 872.662 402.518C893.461 393.272 913.109 384.534 932.446 376.741C974.437 359.821 1014.79 347.827 1055.84 340.06C1102.4 331.27 1157.32 325.049 1228.69 320.478C1335.09 313.683 1448.02 317.361 1564.35 331.409C1607.47 336.62 1645.6 341.916 1679.23 346.586C1713.34 351.321 1742.79 355.409 1766.57 357.866C1812.88 362.641 1840.88 363.321 1841.15 363.328L1841.08 364.688C1840.8 364.682 1812.68 364.001 1766.23 359.207C1742.41 356.75 1712.92 352.655 1678.79 347.913C1645.16 343.244 1607.05 337.954 1563.96 332.743C1447.82 318.722 1335.1 315.05 1228.91 321.832C1157.69 326.389 1102.88 332.598 1056.45 341.368C1015.6 349.095 975.412 361.043 933.597 377.897C914.301 385.67 894.674 394.401 873.896 403.641C850.484 414.049 826.285 424.808 800.271 435.23C742.758 458.252 675.146 474.03 599.334 482.121C550.406 487.332 499.58 489.954 448.952 489.954V489.94Z" fill="url(#paint3_linear_1751_49871)" fill-opacity="0.1"/>
<path d="M448.89 439.439C410.402 439.439 372.019 438.111 334.351 435.443C257.284 429.968 183.005 419.183 113.548 403.379C70.1774 393.505 29.8448 381.941 -9.76205 368.032C-34.6563 359.288 -54.0139 351.574 -69.5663 345.372L-74.4083 343.444C-103.408 331.913 -119.821 326.259 -119.987 326.207L-118.971 325.005C-118.805 325.057 -102.34 330.731 -73.2782 342.288L-68.4258 344.217C-52.8941 350.405 -33.5676 358.112 -8.72522 366.837C30.778 380.713 71.0173 392.244 114.274 402.091C183.565 417.856 257.688 428.621 334.589 434.083C430.009 440.845 530.229 438.983 624.383 428.693C675.374 423.113 717.345 416.561 752.701 408.662C783.122 401.853 813.781 392.838 849.188 380.277C883.766 368.006 914.55 355.457 941.704 344.382C954.955 338.979 967.47 333.881 979.466 329.192C1017.61 314.292 1050.35 304.802 1082.52 299.32C1128.06 291.58 1186.17 288.766 1237.05 286.739C1362.25 281.752 1475.65 287.868 1550.05 292.907C1720.22 304.432 1838.65 303.943 1839.83 303.937L1839.85 305.297C1838.69 305.297 1720.13 305.792 1549.84 294.261C1475.52 289.235 1362.25 283.126 1237.19 288.099C1186.42 290.12 1128.45 292.927 1083.09 300.634C1051.12 306.083 1018.56 315.521 980.606 330.347C968.621 335.03 956.116 340.129 942.876 345.524C915.69 356.606 884.876 369.175 850.246 381.465C814.734 394.06 783.972 403.115 753.427 409.944C717.967 417.869 675.872 424.44 624.767 430.034C567.575 436.282 508.134 439.432 448.91 439.432L448.89 439.439Z" fill="url(#paint4_linear_1751_49871)" fill-opacity="0.1"/>
<path d="M447.937 359.855C402.835 359.855 358.023 358.362 314.279 355.357C267.912 352.167 221.089 347.333 175.105 340.993C139.874 336.132 105.451 330.432 72.812 324.046C47.7726 319.152 23.6456 313.822 1.11531 308.209C-16.1168 303.916 -32.2706 299.511 -48.2688 294.742C-74.0133 287.075 -93.4642 280.206 -106.331 275.669C-130.987 266.971 -144.466 262.572 -144.601 262.533L-143.626 261.317C-143.491 261.364 -129.981 265.769 -105.294 274.473C-92.4481 279.004 -73.0283 285.859 -47.3564 293.507C-31.3996 298.262 -15.2873 302.654 1.90331 306.934C24.3921 312.534 48.4569 317.851 73.4445 322.738C106.032 329.111 140.392 334.804 175.572 339.652C221.483 345.979 268.223 350.807 314.528 353.99C424.722 361.559 541.749 359.531 652.949 348.139C700.633 343.245 747.715 336.746 792.879 328.821C829.375 322.415 864.016 315.17 895.836 307.284C919.839 301.333 943.074 294.709 966.869 287.042C982.878 281.877 997.591 276.706 1010.57 272.149L1016.49 270.068C1041.65 261.251 1069.28 252.507 1100.84 248.307C1117.44 246.108 1136.87 244.602 1160.25 243.704C1181.62 242.891 1205.34 242.647 1228.3 242.409L1240.99 242.277C1326.86 241.333 1409.08 242.178 1481.61 242.924C1503.26 243.149 1524.21 243.36 1544.36 243.525C1614.29 244.073 1674.7 239.649 1723.24 236.089C1736.86 235.091 1749.72 234.147 1761.27 233.434C1811.47 230.336 1840.62 229.491 1840.9 229.484L1840.99 230.845C1840.7 230.851 1811.6 231.703 1761.46 234.794C1749.93 235.508 1737.08 236.452 1723.46 237.449C1674.87 241.016 1614.32 245.454 1544.32 244.899C1524.16 244.74 1503.21 244.523 1481.56 244.298C1409.04 243.552 1326.84 242.706 1241.01 243.651L1228.31 243.783C1205.38 244.014 1181.67 244.258 1160.35 245.071C1137.09 245.962 1117.75 247.461 1101.25 249.648C1069.97 253.808 1042.52 262.5 1017.5 271.264L1011.58 273.344C998.586 277.908 983.863 283.086 967.813 288.263C943.955 295.951 920.658 302.595 896.593 308.559C864.7 316.464 829.998 323.722 793.429 330.142C748.181 338.08 701.026 344.592 653.26 349.493C586.011 356.388 516.637 359.855 447.926 359.855H447.937Z" fill="url(#paint5_linear_1751_49871)" fill-opacity="0.1"/>
<path d="M451.627 241.155C403.84 241.155 352.797 239.715 294.029 236.75C268.337 235.455 242.167 233.943 214.017 232.127C191.663 230.687 169.008 229.108 146.686 227.431C110.365 224.71 75.8287 221.804 44.0292 218.806C19.052 216.454 -4.41141 214.017 -25.739 211.567C-42.152 209.685 -57.9118 207.717 -72.5829 205.729C-94.5637 202.744 -111.143 200.115 -125.783 197.718C-147.618 194.145 -159.355 192.309 -159.479 192.296L-158.971 190.975C-158.857 190.994 -147.11 192.831 -125.254 196.404C-110.634 198.794 -94.0867 201.416 -72.1371 204.401C-57.4867 206.389 -41.7476 208.351 -25.3657 210.233C-4.06926 212.677 19.3838 215.114 44.3299 217.465C76.1087 220.463 110.635 223.363 146.934 226.084C169.247 227.755 191.891 229.333 214.235 230.773C242.364 232.589 268.513 234.101 294.195 235.396C368.805 239.16 430.963 240.461 489.793 239.477C520.099 238.975 552.687 237.886 589.422 236.149C617.665 234.815 646.872 233.183 678.693 231.169C704.489 229.531 730.555 227.715 756.196 225.78C778.819 224.069 801.028 222.266 822.211 220.417C859.205 217.187 893.15 213.813 923.125 210.392C947.128 207.651 969.73 204.725 990.311 201.713C1007.15 199.243 1022.03 196.793 1035.15 194.634C1060.99 190.374 1083.45 187.217 1109.06 185.638C1124.13 184.714 1141.89 184.1 1163.32 183.763C1184.47 183.432 1207.98 183.439 1232.88 183.439H1253.04C1361.25 183.479 1463.37 183.485 1557.98 167.351C1613.02 157.953 1660.85 147.894 1699.28 139.817C1729.31 133.503 1755.23 128.055 1776.18 124.66C1820.05 117.56 1845.55 116.755 1845.8 116.748L1845.89 118.109C1845.64 118.115 1820.33 118.921 1776.69 125.981C1755.82 129.362 1729.93 134.811 1699.95 141.112C1661.49 149.202 1613.63 159.267 1558.52 168.672C1463.65 184.846 1361.39 184.852 1253.04 184.806H1232.88C1208 184.806 1184.49 184.793 1163.36 185.123C1141.98 185.453 1124.29 186.068 1109.26 186.992C1083.78 188.558 1061.42 191.708 1035.68 195.948C1022.55 198.114 1007.66 200.564 990.788 203.034C970.176 206.052 947.532 208.978 923.498 211.726C893.503 215.153 859.526 218.528 822.501 221.764C801.308 223.614 779.089 225.417 756.444 227.127C730.793 229.069 704.707 230.878 678.9 232.516C647.059 234.537 617.831 236.168 589.567 237.503C552.801 239.233 520.182 240.323 489.834 240.831C477.278 241.043 464.567 241.148 451.617 241.148L451.627 241.155Z" fill="url(#paint6_linear_1751_49871)" fill-opacity="0.1"/>
<path d="M1225.99 124.56C1203.71 124.56 1182.64 124.54 1163.58 124.322C1142.29 124.078 1124.68 123.629 1109.75 122.962C1084.47 121.826 1062.26 119.541 1036.71 116.456C1023.73 114.891 1009.03 113.121 992.271 111.325C971.907 109.145 949.429 107.025 925.458 105.017C895.804 102.534 861.962 100.064 824.875 97.6734C804.076 96.3327 781.898 94.992 758.974 93.691C733.509 92.2512 707.443 90.8775 681.492 89.6029C649.62 88.0442 620.308 86.7431 591.91 85.6336C564.651 84.5703 528.539 83.2692 490.829 82.6616C457.143 82.1201 421.839 82.2654 385.902 83.1041C350.028 83.9363 316.663 85.2308 291.592 86.261C265.744 87.3243 239.512 88.5197 211.414 89.9133C188.832 91.0294 166.198 92.2314 144.135 93.4664C107.576 95.5204 73.1325 97.6668 41.7477 99.8462C16.9157 101.57 -6.45444 103.347 -27.6991 105.13C-44.1121 106.51 -59.7682 107.937 -74.2216 109.37C-96.1609 111.549 -112.512 113.445 -126.913 115.168C-148.78 117.784 -160.247 119.098 -160.247 119.098L-160.631 117.757C-160.631 117.757 -149.164 116.443 -127.307 113.834C-112.885 112.111 -96.5134 110.209 -74.543 108.029C-60.0585 106.589 -44.392 105.163 -27.9686 103.782C-6.70328 101.999 16.6772 100.216 41.53 98.4923C72.9252 96.3129 107.389 94.1665 143.969 92.1125C166.043 90.8709 188.687 89.6755 211.269 88.5593C239.378 87.1658 265.62 85.9704 291.478 84.9071C316.559 83.8768 349.945 82.5824 385.84 81.7502C421.828 80.9181 457.174 80.7662 490.902 81.3078C528.642 81.9154 564.786 83.2164 592.055 84.2797C620.474 85.3893 649.786 86.6903 681.668 88.2556C707.63 89.5236 733.706 90.9039 759.181 92.3437C782.116 93.6447 804.294 94.9854 825.113 96.3261C862.221 98.7169 896.084 101.194 925.758 103.677C949.75 105.685 972.25 107.811 992.644 109.991C1009.42 111.787 1024.13 113.557 1037.12 115.122C1062.6 118.193 1084.73 120.472 1109.92 121.608C1124.81 122.275 1142.38 122.724 1163.63 122.968C1184.83 123.213 1208.52 123.213 1233.59 123.206H1241.31C1293.59 123.206 1354.61 122.361 1417.11 112.229C1475.68 102.726 1535.36 88.6584 1599.56 69.2349C1650.16 53.9194 1691.74 38.7689 1729.13 24.6818L1744.25 18.9756C1768.68 9.74266 1787.97 2.45803 1803.58 -2.7132C1835.62 -13.3264 1853.73 -15.1559 1854.49 -15.2285L1854.81 -13.8812C1854.63 -13.8614 1836.24 -11.9924 1804.57 -1.50461C1789.02 3.65341 1769.75 10.9314 1745.35 20.1512L1730.22 25.8573C1692.77 39.9643 1651.14 55.1346 1600.47 70.47C1536.15 89.9331 1476.33 104.027 1417.63 113.557C1354.89 123.728 1293.72 124.58 1241.3 124.58H1233.58C1231.03 124.58 1228.5 124.58 1225.99 124.58V124.56Z" fill="url(#paint7_linear_1751_49871)" fill-opacity="0.1"/>
<path d="M1209.6 64.5457C1194.56 64.5457 1178.45 64.3013 1161.02 63.806C1138.18 63.1588 1119.1 61.8577 1102.65 59.8368C1072.16 56.0789 1045.19 47.9885 1020.6 39.8123L1016.9 38.5773C1003.64 34.1589 988.601 29.1528 972.012 24.1599C949.824 17.4829 926.142 11.2087 901.611 5.50253C869.988 -1.85475 835.409 -8.67049 798.83 -14.7597C753.158 -22.3614 705.661 -28.6421 657.666 -33.4303C543.19 -44.8361 423.332 -46.8504 311.023 -39.262C263.681 -36.0589 217.553 -31.4358 169.983 -25.1484C134.638 -20.4725 100.132 -15.0371 67.4305 -8.99409C42.4533 -4.38423 18.4611 0.602066 -3.88257 5.82614C-20.731 9.76234 -37.1544 13.9627 -52.6861 18.2952C-78.2647 25.4412 -97.1349 31.7087 -109.629 35.8563C-133.714 43.8542 -146.83 47.9159 -146.955 47.9555L-147.888 46.7271C-147.753 46.6875 -134.668 42.6324 -110.614 34.6477C-98.0992 30.4935 -79.1874 24.2061 -53.5467 17.047C-37.9735 12.7013 -21.519 8.49431 -4.61873 4.54489C17.7768 -0.685776 41.8208 -5.68529 66.8395 -10.3084C99.5929 -16.358 134.15 -21.8 169.548 -26.4825C217.19 -32.7831 263.391 -37.4062 310.795 -40.6159C423.28 -48.2175 543.345 -46.2032 657.987 -34.7776C706.055 -29.9828 753.614 -23.6955 799.359 -16.0806C836 -9.97815 870.641 -3.14922 902.326 4.22128C926.91 9.94067 950.653 16.2346 972.903 22.9249C989.524 27.9244 1004.58 32.9437 1017.86 37.3687L1021.56 38.6037C1049.82 48.0017 1074.48 54.9826 1103.04 58.5027C1119.39 60.517 1138.37 61.8049 1161.1 62.4521C1191.55 63.3107 1217.91 63.4163 1241.67 62.7757C1301.64 61.1444 1374.78 50.452 1459.08 30.9822C1531.43 14.2599 1602.41 -7.46188 1664.34 -31.8453C1712.04 -50.6347 1754.07 -70.8243 1789.28 -91.8593C1813.95 -106.607 1830.35 -118.726 1843.13 -128.639C1859.5 -141.326 1866.34 -145.421 1866.63 -145.586L1868.08 -144.589C1868.01 -144.549 1861.03 -140.368 1844.78 -127.774C1831.96 -117.828 1815.5 -105.669 1790.74 -90.862C1755.43 -69.761 1713.28 -49.512 1665.47 -30.6763C1603.43 -6.24669 1532.31 15.5214 1459.83 32.2701C1375.33 51.786 1301.96 62.5049 1241.78 64.1428C1231.57 64.4202 1220.88 64.5589 1209.6 64.5589V64.5457Z" fill="url(#paint8_linear_1751_49871)" fill-opacity="0.1"/>
<path d="M1169.43 4.13522C1140.92 4.13522 1114.56 2.51054 1090.57 -0.732193C1052.41 -5.91003 1019.34 -17.5998 992.032 -28.3517L981.985 -32.321C948.33 -45.6354 910.175 -60.7198 861.993 -74.7343C829.748 -84.1125 795.398 -92.4605 759.866 -99.5536C717.864 -107.941 673.809 -114.671 628.945 -119.571C532.22 -130.112 429.356 -132.014 331.459 -125.08C288.731 -122.048 246.221 -117.346 205.1 -111.098C171.549 -105.999 138.65 -99.8376 107.307 -92.7709C63.7287 -82.9436 23.5205 -71.5378 -15.5991 -57.8997C-40.7318 -49.1357 -59.9753 -41.4614 -75.4241 -35.2996L-79.053 -33.8532C-107.338 -22.5861 -123.263 -17.0186 -123.419 -16.9592L-124.445 -18.1546C-124.29 -18.2074 -108.416 -23.7617 -80.1935 -35.0023L-76.5749 -36.4487C-61.0951 -42.6238 -41.8308 -50.3113 -16.6462 -59.0885C22.5873 -72.7596 62.8889 -84.1984 106.581 -94.0455C137.997 -101.125 170.968 -107.307 204.592 -112.412C245.796 -118.673 288.399 -123.382 331.21 -126.42C429.304 -133.375 532.375 -131.459 629.298 -120.906C674.265 -115.998 718.403 -109.249 760.498 -100.848C796.113 -93.7351 830.557 -85.3674 862.875 -75.9693C911.181 -61.9152 949.388 -46.8044 983.095 -33.4767L993.131 -29.5141C1020.29 -18.8216 1053.15 -7.19791 1091 -2.0663C1137.11 4.17484 1192.06 4.37958 1254.32 -1.44548C1335.42 -9.05373 1426.29 -24.5476 1517.09 -46.2628C1603.84 -67.0204 1682.6 -92.0642 1744.86 -118.686C1797.69 -141.287 1839.17 -165.34 1864.84 -188.237C1867.52 -190.621 1870.07 -193.032 1872.4 -195.403C1872.94 -195.951 1873.06 -196.07 1873.08 -196.09L1873.99 -195.746L1875.04 -195.931C1875.12 -195.738 1874.85 -195.319 1874.22 -194.677C1871.85 -192.286 1869.28 -189.849 1866.59 -187.445C1840.77 -164.422 1799.09 -140.25 1746.06 -117.557C1683.67 -90.8754 1604.76 -65.7788 1517.85 -44.9882C1426.9 -23.2399 1335.89 -7.71303 1254.64 -0.091568C1224.47 2.73511 1196.01 4.14182 1169.41 4.14182L1169.43 4.13522Z" fill="url(#paint9_linear_1751_49871)" fill-opacity="0.1"/>
<path d="M1742.95 1089.4L1740.81 1089.36C1740.81 1089.19 1741.7 1072.25 1750.9 1045.56C1758.63 1023.15 1775.85 992.752 1797.64 954.269C1801.42 947.578 1805.36 940.631 1809.42 933.425C1823 909.286 1840.32 876.614 1853.85 837.906C1868.96 794.674 1876.8 750.748 1877.14 707.357C1877.49 660.968 1869.3 614.004 1852.79 567.767C1837.9 526.107 1817.28 488.475 1797.22 454.02L1794.08 448.624C1776.9 419.142 1760.66 391.298 1751 363.421C1741.13 334.93 1737.5 301.663 1739.9 261.713C1741.29 238.631 1744.38 212.299 1749.32 181.212C1754.35 149.644 1760.82 116.833 1768.54 83.712C1785.08 12.7875 1805.33 -51.5788 1828.72 -107.604C1840.31 -135.355 1852.58 -160.624 1865.18 -182.715C1866.73 -185.436 1868.29 -188.105 1869.85 -190.74C1870.63 -192.047 1871.41 -193.348 1872.2 -194.63L1872.92 -195.825C1872.92 -195.825 1872.88 -195.62 1873.14 -195.376L1874.92 -196.129L1874.95 -195.396L1874.19 -194.148C1873.41 -192.866 1872.62 -191.572 1871.85 -190.264C1870.29 -187.642 1868.73 -184.967 1867.19 -182.26C1854.61 -160.208 1842.37 -134.972 1830.8 -107.26C1807.43 -51.2816 1787.2 13.0319 1770.67 83.9035C1762.96 117.011 1756.49 149.795 1751.46 181.345C1746.51 212.398 1743.43 238.71 1742.04 261.766C1739.65 301.597 1743.27 334.751 1753.1 363.13C1762.73 390.915 1778.93 418.713 1796.09 448.148L1799.23 453.544C1819.32 488.045 1839.96 525.73 1854.88 567.463C1871.43 613.8 1879.64 660.869 1879.29 707.364C1878.94 750.847 1871.09 794.865 1855.95 838.197C1842.39 876.978 1825.04 909.702 1811.44 933.881C1807.38 941.086 1803.44 948.034 1799.66 954.724C1777.9 993.162 1760.71 1023.52 1752.99 1045.85C1743.84 1072.39 1742.96 1089.22 1742.96 1089.39L1742.95 1089.4Z" fill="url(#paint10_linear_1751_49871)" fill-opacity="0.1"/>
<path d="M1648.1 1095.95L1645.97 1095.79C1645.99 1095.65 1648.77 1081.1 1660.25 1058.42C1667.18 1044.72 1679.08 1027.52 1694.14 1005.73C1704.16 991.239 1715.52 974.814 1727.69 956.124C1750.26 921.464 1766.78 889.769 1779.67 856.391C1798.4 807.829 1808.12 757.847 1808.57 707.845C1809.01 655.096 1798.57 600.167 1778.38 549.003C1769.89 527.486 1759.37 505.705 1747.11 484.254C1737.79 467.947 1727.23 451.331 1713.85 431.954C1709.14 425.125 1704.45 418.474 1699.84 411.962C1684.72 390.531 1670.42 370.288 1660.38 350.528C1646.75 323.648 1639.8 294.543 1639.73 264.011C1639.71 245.34 1642.74 222.707 1648.99 194.81C1655.1 167.521 1663.76 138.237 1674.72 107.771C1696.96 45.9803 1726.37 -14.2517 1759.77 -66.4197C1790.82 -114.876 1825.8 -156.299 1860.94 -186.197C1864.98 -189.631 1869.05 -192.953 1873.07 -196.07L1874.86 -195.317L1874.73 -195.205C1870.73 -192.101 1866.67 -188.799 1862.66 -185.378C1827.62 -155.566 1792.73 -114.255 1761.75 -65.8979C1728.4 -13.796 1699.02 46.3699 1676.82 108.088C1665.87 138.521 1657.22 167.765 1651.12 195.015C1644.89 222.846 1641.86 245.419 1641.89 264.024C1641.95 294.417 1648.86 323.384 1662.44 350.125C1672.44 369.813 1686.71 390.022 1701.81 411.421C1706.42 417.939 1711.11 424.596 1715.83 431.425C1729.22 450.829 1739.8 467.472 1749.15 483.805C1761.43 505.295 1771.97 527.123 1780.49 548.686C1800.72 599.962 1811.18 655.01 1810.73 707.871C1810.29 757.985 1800.54 808.066 1781.77 856.734C1768.87 890.179 1752.32 921.933 1729.7 956.658C1717.52 975.362 1706.16 991.794 1696.13 1006.3C1681.1 1028.05 1669.22 1045.22 1662.32 1058.85C1650.93 1081.4 1648.17 1095.83 1648.14 1095.97L1648.1 1095.95Z" fill="url(#paint11_linear_1751_49871)" fill-opacity="0.1"/>
<path d="M1550.89 1104.38L1548.78 1104.17C1548.81 1104.05 1551.85 1091.59 1562.35 1072.21C1567.74 1062.26 1576.24 1050.01 1587.02 1034.51C1597.26 1019.76 1610 1001.4 1623.65 979.728C1632.89 965.04 1641.06 950.814 1648.64 936.225C1658.6 917.046 1667.46 897.266 1674.98 877.439C1684.57 852.151 1692.16 826.315 1697.55 800.637C1703.97 770.032 1707.36 739.018 1707.64 708.453C1707.92 676.712 1704.85 644.483 1698.5 612.67C1692.82 584.251 1684.46 555.667 1673.62 527.711C1664.8 504.926 1654.18 482.233 1642.09 460.254C1633 443.723 1622.77 427.06 1610.82 409.321L1606.51 402.921C1573.53 354.002 1545.04 311.748 1541.04 262.089C1539.71 245.334 1538.71 227.264 1542.3 206.725C1546.04 185.373 1553.35 161.141 1564.01 134.724C1584.19 84.7418 1614.21 31.986 1650.83 -17.844C1681.84 -60.0196 1717.37 -98.0873 1753.55 -127.932C1787.68 -156.067 1817.25 -172.677 1836.04 -181.653C1850.65 -188.627 1864.49 -193.217 1870.4 -195.185C1871.79 -195.647 1873.11 -196.083 1873.35 -196.202L1873.95 -195.7L1874.02 -195.713V-196.42L1875.12 -195.885C1875.35 -195.291 1875.2 -195.238 1871.39 -193.976C1865.52 -192.028 1851.78 -187.471 1837.32 -180.563C1818.63 -171.64 1789.23 -155.116 1755.23 -127.1C1719.14 -97.3344 1683.71 -59.3526 1652.76 -17.2695C1616.19 32.488 1586.22 85.1579 1566.07 135.061C1555.43 161.419 1548.16 185.577 1544.42 206.877C1540.85 227.311 1541.84 245.327 1543.18 262.023C1547.15 311.437 1575.57 353.586 1608.48 402.386L1612.79 408.786C1624.75 426.558 1634.99 443.247 1644.1 459.811C1656.21 481.83 1666.84 504.569 1675.7 527.394C1686.54 555.403 1694.93 584.04 1700.61 612.511C1706.97 644.384 1710.05 676.673 1709.77 708.473C1709.49 739.097 1706.09 770.171 1699.67 800.828C1694.28 826.553 1686.67 852.435 1677.05 877.77C1669.52 897.629 1660.63 917.449 1650.66 936.661C1643.07 951.276 1634.88 965.529 1625.62 980.243C1611.96 1001.95 1599.21 1020.31 1588.97 1035.07C1578.22 1050.55 1569.73 1062.77 1564.37 1072.66C1553.94 1091.92 1550.91 1104.27 1550.88 1104.39L1550.89 1104.38Z" fill="url(#paint12_linear_1751_49871)" fill-opacity="0.1"/>
<path d="M1448.92 1111.25L1446.8 1111.11C1446.82 1111 1448.71 1100.09 1455.16 1082.92C1458.21 1074.8 1462.59 1064.76 1468.92 1051.33L1472.45 1043.9C1478.2 1031.8 1485.37 1016.76 1493.04 998.729C1498.95 984.82 1504.37 971.024 1509.6 956.567C1516.52 937.414 1522.96 917.442 1528.74 897.213C1532.33 884.605 1535.68 871.846 1538.7 859.291C1542.34 844.12 1545.41 829.663 1548.08 815.074C1554.98 777.502 1558.47 742.855 1558.77 709.167C1559.09 674.414 1555.8 637.258 1549 598.735C1546.23 583.043 1542.83 566.736 1538.9 550.265C1535.53 536.165 1531.74 521.879 1527.67 507.812C1520.94 484.578 1513.36 461.806 1505.14 440.117C1498.95 423.778 1492.32 407.855 1484.88 391.43L1481.08 383.069C1461.53 340.061 1444.64 302.918 1441.61 259.415L1441.26 254.356C1439.06 223.117 1436.79 190.808 1447.34 155.092C1458.74 116.522 1480.56 73.3231 1512.17 26.7093C1553.39 -34.0312 1604.83 -87.9097 1665.05 -133.421C1696.02 -156.82 1712.6 -166.958 1712.76 -167.057L1714.24 -166.073C1714.07 -165.974 1697.56 -155.875 1666.68 -132.542C1606.59 -87.1304 1555.27 -33.3707 1514.13 27.2509C1482.58 73.7722 1460.8 116.872 1449.43 155.343C1438.94 190.907 1441.2 223.13 1443.39 254.296L1443.74 259.362C1446.76 302.706 1463.61 339.777 1483.13 382.699L1486.93 391.066C1494.38 407.511 1501.01 423.454 1507.21 439.807C1515.43 461.515 1523.02 484.32 1529.76 507.574C1533.85 521.655 1537.62 535.953 1541 550.067C1544.94 566.551 1548.34 582.878 1551.11 598.589C1557.91 637.166 1561.21 674.368 1560.9 709.18C1560.6 742.922 1557.09 777.608 1550.19 815.233C1547.5 829.835 1544.43 844.312 1540.8 859.495C1537.78 872.064 1534.42 884.836 1530.82 897.457C1525.04 917.706 1518.6 937.698 1511.66 956.877C1506.42 971.354 1501 985.157 1495.08 999.086C1487.41 1017.14 1480.23 1032.19 1474.48 1044.29L1470.95 1051.72C1464.63 1065.12 1460.27 1075.14 1457.23 1083.24C1450.82 1100.32 1448.92 1111.15 1448.91 1111.25H1448.92Z" fill="url(#paint13_linear_1751_49871)" fill-opacity="0.1"/>
<path d="M1343.34 1113.95H1341.21C1341.21 1113.95 1341.27 1103.81 1341.52 1087.25C1341.63 1079.19 1341.81 1069.26 1342.03 1057.3L1342.15 1050.28C1342.37 1038.47 1342.64 1024.12 1342.93 1006.67C1343.13 994.694 1343.34 981.036 1343.57 965.503C1343.82 948.404 1344.09 928.941 1344.36 906.882C1344.5 895.021 1344.66 882.407 1344.81 869.006C1344.98 854.946 1345.15 840.026 1345.31 824.215C1345.49 807.645 1345.66 790.097 1345.84 771.546L1345.98 757.491C1346.13 742.301 1346.29 726.477 1346.39 709.999C1346.49 693.858 1346.3 678.034 1346.11 662.732C1346.04 657.144 1345.98 651.61 1345.92 646.135C1345.74 626.553 1345.55 607.75 1345.35 589.733C1345.18 572.595 1344.99 556.203 1344.81 540.564C1344.65 525.73 1344.47 511.604 1344.31 498.177C1344.15 485.477 1343.98 473.424 1343.83 462.018C1343.68 451.246 1343.53 441.062 1343.38 431.44C1343.11 413.819 1342.85 398.101 1342.61 384.086L1342.47 376.749C1341.73 335.485 1341.1 299.854 1340.99 258.2C1340.89 225.878 1340.88 193.246 1340.89 161.631C1340.91 129.903 1349.57 94.2264 1365.98 58.4505C1395.19 -5.22237 1434.12 -54.2137 1459.88 -86.6346C1462.69 -90.1679 1465.36 -93.5296 1467.86 -96.7129C1490.5 -125.495 1501.14 -140.903 1501.24 -141.055L1503.2 -140.507C1503.1 -140.355 1492.44 -124.92 1469.78 -96.1053C1467.28 -92.922 1464.61 -89.5603 1461.8 -86.0204C1436.08 -53.6457 1397.19 -4.71382 1368.04 58.8336C1351.7 94.4906 1343.06 130.035 1343.05 161.631C1343.04 193.246 1343.05 225.878 1343.14 258.2C1343.26 299.847 1343.89 335.478 1344.63 376.735L1344.76 384.073C1345.01 398.087 1345.27 413.812 1345.54 431.426C1345.68 441.049 1345.83 451.24 1345.99 462.005C1346.14 473.417 1346.31 485.47 1346.46 498.17C1346.63 511.597 1346.8 525.724 1346.97 540.557C1347.15 556.196 1347.33 572.588 1347.51 589.727C1347.7 607.744 1347.88 626.546 1348.08 646.128C1348.13 651.603 1348.2 657.138 1348.27 662.725C1348.45 678.027 1348.65 693.858 1348.55 710.006C1348.44 726.484 1348.28 742.308 1348.13 757.498L1348 771.552C1347.81 790.104 1347.63 807.652 1347.46 824.229C1347.29 840.046 1347.13 854.965 1346.96 869.026C1346.8 882.426 1346.66 895.041 1346.5 906.902C1346.22 928.961 1345.96 948.424 1345.72 965.523C1345.49 981.063 1345.27 994.721 1345.07 1006.7C1344.78 1024.15 1344.51 1038.5 1344.3 1050.31L1344.16 1057.33C1343.94 1069.29 1343.77 1079.22 1343.65 1087.28C1343.41 1103.83 1343.34 1113.96 1343.34 1113.96V1113.95Z" fill="url(#paint14_linear_1751_49871)" fill-opacity="0.1"/>
<path d="M1235.48 1111.61C1235.46 1111.51 1233.69 1100.75 1227.67 1083.77C1224.82 1075.72 1220.73 1065.78 1214.78 1052.47L1211.48 1045.09C1206.07 1033.05 1199.34 1018.06 1192.11 1000.08C1186.54 986.227 1181.43 972.457 1176.47 957.987C1169.92 938.854 1163.8 918.882 1158.28 898.627C1154.85 886.019 1151.62 873.233 1148.72 860.625C1145.19 845.349 1142.21 830.826 1139.6 816.217C1132.76 777.885 1129.29 742.889 1128.98 709.233C1128.67 674.48 1131.94 636.928 1138.7 597.625C1141.45 581.662 1144.66 565.733 1148.52 548.938C1151.77 534.831 1155.38 520.519 1159.29 506.399C1165.73 483.112 1172.93 460.34 1180.68 438.717C1186.53 422.404 1192.78 406.514 1199.78 390.135L1203.33 381.867C1221.66 339.176 1237.48 302.31 1240.33 259.21C1242.84 221.09 1242.2 183.121 1241.59 146.414C1241.14 119.871 1240.72 94.8006 1241.5 71.1172C1243.24 20.2965 1261.14 -24.0783 1274.22 -56.4728C1276.67 -62.5687 1279 -68.3211 1281.04 -73.664C1293.36 -105.959 1299.01 -124.227 1299.07 -124.412L1301.16 -124.148C1301.11 -123.97 1295.44 -105.675 1283.12 -73.347C1281.08 -67.9909 1278.76 -62.2318 1276.29 -56.136C1263.24 -23.8009 1245.37 20.4814 1243.64 71.1437C1242.86 94.8072 1243.28 119.864 1243.72 146.401C1244.33 183.134 1244.98 221.109 1242.47 259.27C1239.61 302.522 1223.75 339.46 1205.39 382.23L1201.85 390.499C1194.85 406.858 1188.6 422.735 1182.77 439.028C1175.02 460.63 1167.84 483.383 1161.4 506.643C1157.5 520.75 1153.88 535.049 1150.64 549.142C1146.78 565.924 1143.57 581.834 1140.83 597.784C1134.08 637.034 1130.81 674.533 1131.11 709.233C1131.42 742.836 1134.89 777.786 1141.73 816.072C1144.34 830.661 1147.32 845.177 1150.84 860.44C1153.75 873.035 1156.97 885.807 1160.39 898.402C1165.91 918.638 1172.03 938.596 1178.57 957.709C1183.52 972.166 1188.63 985.917 1194.19 999.759C1201.41 1017.72 1208.14 1032.7 1213.54 1044.73L1216.85 1052.11C1222.8 1065.45 1226.89 1075.42 1229.76 1083.49C1235.8 1100.56 1237.58 1111.38 1237.61 1111.49L1235.48 1111.62V1111.61Z" fill="url(#paint15_linear_1751_49871)" fill-opacity="0.1"/>
<path d="M1133.18 1104.97C1133.15 1104.85 1130.17 1092.62 1119.93 1073.57C1114.98 1064.36 1107.73 1052.86 1097.79 1038.4C1095.61 1035.22 1093.29 1031.89 1090.85 1028.39C1081.62 1015.13 1071.14 1000.1 1059.79 981.823C1050.68 967.161 1042.6 952.929 1035.09 938.307C1025.2 919.048 1016.39 899.195 1008.89 879.29C999.291 853.77 991.67 827.716 986.258 801.847C979.767 770.826 976.335 739.422 976.055 708.5C975.775 676.383 978.886 643.751 985.304 611.502C991.007 582.872 999.405 554.044 1010.25 525.823C1019.05 502.932 1029.59 480.154 1041.56 458.128C1050.57 441.571 1060.66 424.928 1072.42 407.248C1077.4 399.759 1082.4 392.415 1087.35 385.163C1115.39 344.031 1141.89 305.177 1147.65 261.635C1156.46 194.613 1153.76 130.075 1149.53 70.3188C1141.64 -40.5489 1143.95 -116.612 1143.98 -117.371L1146.12 -117.345C1146.1 -116.592 1143.78 -40.5621 1151.66 70.2528C1155.9 130.055 1158.61 194.64 1149.79 261.747C1144 305.514 1117.44 344.467 1089.32 385.705C1084.38 392.95 1079.38 400.294 1074.4 407.776C1062.66 425.423 1052.59 442.04 1043.6 458.571C1031.65 480.557 1021.13 503.289 1012.34 526.14C1001.52 554.314 993.142 583.083 987.44 611.667C981.032 643.857 977.922 676.436 978.212 708.487C978.492 739.349 981.924 770.694 988.394 801.655C993.796 827.478 1001.41 853.493 1010.99 878.966C1018.46 898.832 1027.26 918.658 1037.14 937.877C1044.63 952.473 1052.7 966.679 1061.79 981.314C1073.13 999.556 1083.58 1014.58 1092.81 1027.83C1095.25 1031.33 1097.57 1034.66 1099.76 1037.84C1109.73 1052.34 1116.99 1063.88 1121.96 1073.12C1132.26 1092.3 1135.27 1104.63 1135.3 1104.76L1133.19 1104.96L1133.18 1104.97Z" fill="url(#paint16_linear_1751_49871)" fill-opacity="0.1"/>
<path d="M1035.66 1096.54C1035.63 1096.4 1032.8 1082.13 1021.36 1059.86C1014.55 1046.61 1002.95 1029.96 988.258 1008.88C978.004 994.173 966.381 977.504 953.877 958.384C931.181 923.678 914.54 891.838 901.507 858.189C882.502 809.072 872.642 758.509 872.185 707.9C871.74 654.516 882.326 598.941 902.803 547.195C911.388 525.52 922.005 503.606 934.354 482.063C943.758 465.657 954.375 449.034 967.76 429.743C980.793 410.973 995.92 392.666 1010.54 374.966C1039.5 339.923 1066.85 306.822 1079.85 269.937C1100.25 211.851 1103.22 144.856 1088.94 65.1215C1081.65 24.4517 1071.58 -10.0364 1063.49 -37.7483C1059.96 -49.8476 1056.91 -60.3023 1054.54 -69.6541C1046.86 -100.021 1044.85 -118.031 1044.83 -118.216L1046.96 -118.309C1046.98 -118.13 1048.99 -100.173 1056.65 -69.8721C1059.01 -60.5335 1062.06 -50.0919 1065.6 -37.9993C1073.69 -10.2675 1083.77 24.247 1091.07 64.963C1105.37 144.843 1102.38 211.99 1081.94 270.227C1068.87 307.284 1041.45 340.465 1012.43 375.594C997.818 393.273 982.711 411.561 969.709 430.284C956.345 449.549 945.748 466.146 936.355 482.525C924.027 504.022 913.43 525.889 904.866 547.519C884.43 599.158 873.865 654.615 874.311 707.886C874.757 758.39 884.607 808.848 903.57 857.852C916.572 891.435 933.182 923.209 955.837 957.849C968.33 976.956 979.943 993.618 990.197 1008.32C1004.91 1029.43 1016.53 1046.11 1023.39 1059.43C1034.89 1081.84 1037.75 1096.23 1037.78 1096.38L1035.66 1096.54Z" fill="url(#paint17_linear_1751_49871)" fill-opacity="0.1"/>
<path d="M940.792 1089.74C940.792 1089.57 939.714 1072.92 930.3 1046.68C922.617 1025.31 905.996 996.503 884.938 960.027C880.418 952.194 875.69 943.991 870.786 935.419C856.996 911.3 839.401 878.588 825.549 839.418C810.131 795.756 802.137 751.335 801.774 707.396C801.391 658.722 809.063 611.441 824.574 566.861C838.105 528.021 858.178 489.696 884.244 452.956C900.864 429.589 923.457 407.174 947.387 383.438C979.477 351.611 1012.64 318.702 1030.41 283.117C1062.54 218.401 1067.37 141.717 1044.73 55.1869C1030.23 -0.18428 1008.06 -41.9174 991.877 -72.39C989.731 -76.4319 987.709 -80.2426 985.843 -83.8222C971.161 -112.003 963.997 -128.19 963.924 -128.349L965.977 -128.719C966.05 -128.56 973.204 -112.399 987.864 -84.2514C989.731 -80.6719 991.753 -76.8612 993.899 -72.8259C1010.1 -42.3136 1032.3 -0.521103 1046.84 54.9623C1069.53 141.704 1064.67 218.606 1032.44 283.527C1014.59 319.283 981.343 352.265 949.18 384.171C925.292 407.861 902.741 430.243 886.193 453.517C860.189 490.171 840.158 528.404 826.658 567.152C811.178 611.632 803.527 658.814 803.91 707.383C804.263 751.223 812.246 795.545 827.633 839.107C841.454 878.198 859.028 910.857 872.787 934.943C877.691 943.516 882.419 951.712 886.94 959.545C908.018 996.067 924.67 1024.91 932.373 1046.37C941.84 1072.74 942.918 1089.51 942.928 1089.68L940.792 1089.73V1089.74Z" fill="url(#paint18_linear_1751_49871)" fill-opacity="0.1"/>
<path d="M843.144 1087.86C843.134 1087.14 841.506 1014.74 800.406 916.657C774.143 853.968 749.757 785.183 749.218 707.027C748.658 618.687 771.935 537.532 814.766 478.509C835.347 450.203 863.964 422.92 891.512 397.394L897.598 391.76C927.542 364.095 958.491 335.485 978.533 302.132C1033.5 210.325 1019.42 109.317 997.922 40.7574C976.159 -28.516 940.461 -76.6619 919.123 -105.431L918.677 -106.032C899.071 -132.462 888.111 -146.86 887.997 -147.005L889.926 -147.6C890.03 -147.454 900.999 -133.05 920.616 -106.613L921.062 -106.012C942.431 -77.1903 978.212 -28.9519 1000.02 40.4866C1021.56 109.225 1035.67 210.503 980.524 302.615C960.389 336.125 929.356 364.801 899.351 392.533L893.264 398.167C865.768 423.64 837.203 450.87 816.695 479.084C773.998 537.929 750.783 618.879 751.343 707.021C751.883 785.018 776.227 853.704 802.459 916.3C843.632 1014.57 845.259 1087.12 845.27 1087.85L843.134 1087.86H843.144Z" fill="url(#paint19_linear_1751_49871)" fill-opacity="0.1"/>
<path d="M745.713 1087.91L743.588 1087.8C743.692 1087.04 753.355 1010.6 729.601 904.274C727.994 897.082 726.283 889.685 724.531 882.077C712.659 830.602 699.212 772.266 698.89 706.763C698.735 671.001 702.561 632.286 710.285 591.689C716.641 558.337 728.803 529.158 746.429 504.967C763.143 482.063 787.176 458.663 812.63 433.89L821.941 424.836C851.076 396.529 884.109 364.445 906.857 326.972C932.249 285.067 946.36 234.26 949.989 171.643C952.903 121.133 946.07 70.8473 929.688 22.1862C918.024 -12.4207 901.507 -45.9776 880.605 -77.5664C864.43 -102.003 849.199 -120.204 837.742 -133.327C816.259 -157.928 803.62 -170.523 803.496 -170.642L805.3 -171.375C805.424 -171.25 818.105 -158.629 839.619 -133.981C851.107 -120.825 866.359 -102.584 882.585 -78.0881C903.539 -46.4201 920.098 -12.7774 931.793 21.9088C948.216 70.6822 955.06 121.08 952.146 171.703C948.496 234.464 934.344 285.417 908.869 327.467C886.038 365.079 852.942 397.223 823.745 425.589L814.445 434.643C789.043 459.37 765.04 482.736 748.399 505.548C730.866 529.614 718.766 558.654 712.431 591.86C704.717 632.405 700.891 671.06 701.047 706.77C701.358 772.173 714.806 830.464 726.667 881.892C728.419 889.5 730.13 896.904 731.737 904.096C755.522 1010.58 745.828 1087.16 745.734 1087.92L745.713 1087.91Z" fill="url(#paint20_linear_1751_49871)" fill-opacity="0.1"/>
<path d="M646.157 1087.86L644.021 1087.85C644.031 1087.1 645.172 1011.25 643.979 899.597C643.7 874.335 641.927 847.125 640.04 818.31C637.707 782.653 635.301 745.774 635.218 706.623C635.146 671.726 635.457 634.629 639.967 598.431C643.482 570.448 652.367 546.547 666.375 527.4C675.561 514.859 687.754 501.874 700.663 488.131C707.661 480.674 714.899 472.967 722.27 464.705C736.807 448.412 749.197 433.295 760.166 418.494C775.968 397.155 788.576 376.378 798.716 354.993C811.375 328.278 821.692 300.309 829.385 271.857C837.918 240.268 843.185 208.026 845.072 176.028C848.515 117.163 840.645 58.1195 821.692 0.542465C814.724 -20.618 806.253 -41.4878 796.518 -61.4793C788.949 -77.026 780.53 -92.2161 771.489 -106.627C759.513 -125.72 746.48 -143.499 731.664 -160.981C712.7 -183.337 701.306 -194.214 701.192 -194.326L702.965 -195.086C703.079 -194.98 714.525 -184.05 733.541 -161.628C748.409 -144.107 761.463 -126.281 773.469 -107.135C782.531 -92.6916 790.971 -77.4685 798.55 -61.8888C808.296 -41.8511 816.788 -20.9416 823.766 0.258484C842.76 57.9478 850.64 117.097 847.187 176.074C845.3 208.131 840.023 240.433 831.48 272.088C823.776 300.593 813.439 328.622 800.748 355.389C790.577 376.84 777.927 397.671 762.085 419.075C751.094 433.909 738.683 449.053 724.116 465.379C716.734 473.654 709.486 481.368 702.477 488.831C689.6 502.548 677.438 515.499 668.293 527.982C654.389 546.982 645.566 570.725 642.072 598.543C637.562 634.689 637.261 671.759 637.323 706.623C637.406 745.748 639.811 782.607 642.144 818.251C644.031 847.072 645.804 874.302 646.084 899.584C647.277 1011.25 646.136 1087.11 646.126 1087.86H646.157Z" fill="url(#paint21_linear_1751_49871)" fill-opacity="0.1"/>
<path d="M519.197 1089.87L517.062 1089.78C517.082 1089.6 519.021 1071.05 525.107 1038.88C526.32 1032.49 527.782 1025.5 529.338 1018.09C536.067 986.042 544.444 946.152 544.444 899.578V706.591C544.444 696.896 544.351 687.101 544.247 677.32C543.998 651.926 543.739 625.661 545.263 601.588C546.87 576.524 551.764 556.486 560.235 540.326C564.61 531.978 570.344 523.174 576.42 513.862C581.936 505.388 587.649 496.631 593.362 486.757C601.2 473.212 608.707 458.484 615.674 442.977C624.415 423.527 632.73 402.023 640.392 379.053C644.809 365.825 649.019 352.068 652.896 338.179C657.262 322.533 661.222 306.689 664.664 291.103C673.27 252.057 678.423 216.11 680.424 181.199C682.488 144.868 680.932 107.111 675.779 68.984C671.829 39.8059 666.023 10.4032 658.039 -20.895C652.388 -42.9999 645.929 -64.7812 638.827 -85.6312C633.466 -101.383 627.753 -116.533 621.843 -130.653C613.943 -149.535 605.814 -166.436 596.97 -182.313C585.793 -202.377 578.96 -212.026 578.898 -212.118L580.847 -212.68C580.92 -212.581 587.784 -202.892 598.992 -182.762C607.846 -166.845 615.996 -149.918 623.917 -130.997C629.827 -116.85 635.55 -101.68 640.921 -85.9086C648.034 -65.0387 654.504 -43.231 660.154 -21.1064C668.159 10.2248 673.965 39.6606 677.915 68.8717C683.078 107.058 684.644 144.868 682.57 181.259C680.569 216.215 675.416 252.209 666.79 291.301C663.348 306.907 659.387 322.764 655.012 338.43C651.123 352.332 646.914 366.102 642.497 379.35C634.825 402.347 626.488 423.89 617.738 443.367C610.76 458.907 603.232 473.667 595.384 487.246C589.66 497.146 583.947 505.917 578.411 514.397C572.356 523.689 566.643 532.466 562.288 540.768C553.89 556.803 549.027 576.722 547.43 601.654C545.896 625.7 546.155 651.946 546.414 677.327C546.507 687.115 546.611 696.909 546.611 706.611V899.597C546.611 946.264 538.223 986.201 531.484 1018.3C529.929 1025.69 528.467 1032.69 527.254 1039.07C521.167 1071.19 519.239 1089.71 519.218 1089.9L519.197 1089.87Z" fill="url(#paint22_linear_1751_49871)" fill-opacity="0.1"/>
<path d="M340.625 1096.96L338.51 1096.75C338.551 1096.59 342.688 1080.21 356.281 1051.41C360.75 1041.95 366.463 1031.15 373.088 1018.65C388.682 989.199 408.091 952.544 424.815 907.74C445.593 851.999 445.293 792.659 444.961 729.838C444.919 722.124 444.878 714.377 444.878 706.597V678.225C444.899 652.157 444.909 626.248 444.837 602.651C444.774 578.4 444.577 560.033 444.235 544.849C444.069 537.466 443.852 529.639 443.623 521.067C443.395 512.95 443.157 504.173 442.929 494.478C442.628 482.213 442.327 468.146 442.016 452.091C441.664 433.605 441.311 412.682 440.969 389.257C440.783 376.405 440.586 362.859 440.399 348.633C440.192 333.569 439.995 317.797 439.798 301.319C439.59 283.95 439.383 265.867 439.175 247.084C438.958 227.363 438.75 206.943 438.533 185.855C438.294 161.604 438.263 139.274 438.46 119.487C438.667 98.6705 438.864 79.0489 439.072 60.5764C439.269 42.8965 439.455 26.2798 439.632 10.6737C439.808 -4.24562 439.974 -18.2337 440.14 -31.3302C440.451 -55.7994 440.751 -77.191 441.031 -95.7691C441.291 -112.736 441.529 -127.431 441.757 -140.071C442.151 -162.269 442.504 -178.621 442.773 -190.271C443.219 -209.556 443.499 -218.703 443.499 -218.703L445.635 -218.677C445.635 -218.677 445.365 -209.536 444.909 -190.251C444.64 -178.601 444.287 -162.249 443.893 -140.058C443.665 -127.417 443.426 -112.723 443.167 -95.7559C442.887 -77.1778 442.587 -55.7862 442.276 -31.317C442.11 -18.2139 441.933 -4.22581 441.768 10.6869C441.581 26.2864 441.394 42.9097 441.208 60.583C441.011 79.0555 440.803 98.6771 440.596 119.494C440.399 139.281 440.43 161.604 440.669 185.848C440.876 206.943 441.094 227.357 441.311 247.078C441.519 265.86 441.726 283.943 441.933 301.313C442.13 317.784 442.327 333.562 442.535 348.627C442.721 362.852 442.918 376.391 443.105 389.243C443.458 412.669 443.8 433.592 444.152 452.071C444.453 468.126 444.764 482.194 445.065 494.458C445.303 504.153 445.542 512.93 445.759 521.041C445.998 529.613 446.205 537.446 446.371 544.83C446.713 560.02 446.9 578.393 446.972 602.651C447.035 626.248 447.024 652.157 447.024 678.225V706.597C447.024 714.377 447.055 722.124 447.097 729.838C447.418 792.745 447.729 852.158 426.889 908.057C410.144 952.921 390.724 989.608 375.11 1019.08C368.495 1031.58 362.782 1042.36 358.324 1051.81C344.772 1080.5 340.656 1096.81 340.615 1096.97L340.625 1096.96Z" fill="url(#paint23_linear_1751_49871)" fill-opacity="0.1"/>
<path d="M141.698 1109.17L139.697 1108.69C139.77 1108.57 147.038 1096.31 166.904 1073.62C170.947 1068.99 175.675 1063.76 180.683 1058.21C205.453 1030.77 242.872 989.298 278.809 932.698C304.812 891.705 323.682 852.283 334.88 815.523C345.518 780.586 345.435 747.254 345.352 715.018V706.591C345.342 696.849 345.446 687.015 345.549 677.181C345.819 651.827 346.099 625.601 344.481 601.495C342.802 576.398 337.628 556.321 328.68 540.114C324.004 531.667 317.887 522.771 311.396 513.346C305.538 504.84 299.483 496.036 293.417 486.117C285.061 472.445 277.067 457.619 269.674 442.045C260.384 422.483 251.592 400.907 243.536 377.917C238.88 364.616 234.474 350.859 230.44 337.009C225.889 321.39 221.783 305.579 218.237 290.006C209.621 252.136 204.24 215.409 202.259 180.849C200.196 144.696 201.762 107.322 206.915 69.7564C210.927 40.5188 216.879 11.2416 225.101 -19.7462C230.959 -41.818 237.719 -63.6059 245.195 -84.5022C250.845 -100.287 256.88 -115.477 263.132 -129.656C271.489 -148.604 280.146 -165.597 289.581 -181.62C301.515 -201.895 308.825 -211.643 308.897 -211.742L310.826 -211.154C310.753 -211.055 303.485 -201.353 291.582 -181.144C282.168 -165.161 273.541 -148.195 265.195 -129.286C258.943 -115.127 252.919 -99.9564 247.279 -84.1983C239.813 -63.3285 233.064 -41.5671 227.216 -19.5217C219.004 11.4331 213.063 40.6773 209.051 69.8753C203.908 107.382 202.342 144.703 204.406 180.796C206.386 215.31 211.757 251.984 220.363 289.808C223.898 305.361 228.004 321.159 232.545 336.758C236.579 350.588 240.975 364.332 245.63 377.613C253.676 400.57 262.458 422.113 271.727 441.649C279.109 457.189 287.082 471.983 295.419 485.621C301.474 495.515 307.518 504.298 313.366 512.798C319.867 522.242 326.005 531.172 330.702 539.658C339.722 555.991 344.937 576.2 346.628 601.429C348.245 625.575 347.965 651.807 347.695 677.181C347.592 687.015 347.488 696.843 347.488 706.584V715.011C347.581 747.313 347.664 780.712 336.995 815.774C325.767 852.62 306.855 892.128 280.81 933.2C244.821 989.886 207.35 1031.41 182.56 1058.88C177.562 1064.42 172.834 1069.66 168.791 1074.27C149.029 1096.86 141.792 1109.04 141.729 1109.16L141.698 1109.17Z" fill="url(#paint24_linear_1751_49871)" fill-opacity="0.1"/>
<path d="M-45.9878 1126.5L-47.2734 1125.41C-47.1594 1125.36 -35.661 1119.82 -11.4718 1104.8C9.3996 1091.85 29.0164 1077.45 48.5191 1060.79C78.8568 1034.85 107.494 1004.49 133.632 970.543C165.67 928.916 193.219 882.665 213.302 836.784C234.547 788.242 245.765 743.22 245.765 706.592C245.765 696.005 245.931 685.108 246.087 674.568C246.46 649.742 246.854 624.07 245.185 599.046C243.298 570.912 235.014 546.878 220.581 527.613C211.996 516.168 200.663 504.485 188.678 492.121C180.331 483.503 171.694 474.6 163.037 464.859C149.506 449.622 137.095 433.825 126.126 417.901C112.191 397.659 99.6659 375.977 88.8725 353.436C76.161 326.853 65.8135 299.009 58.1202 270.67C49.6493 239.418 44.403 207.473 42.5367 175.725C39.1255 117.316 46.9535 58.8212 65.8031 1.8716C72.7913 -19.2228 81.3037 -40.02 91.081 -59.9388C98.712 -75.4723 107.224 -90.669 116.39 -105.113C132.554 -130.599 147.256 -148.51 156.899 -159.764C176.277 -182.358 187.921 -193.4 188.035 -193.506L189.808 -192.746C189.694 -192.641 178.092 -181.644 158.775 -159.117C149.154 -147.889 134.493 -130.025 118.37 -104.604C109.236 -90.1935 100.734 -75.0298 93.1235 -59.5294C83.3566 -39.6502 74.865 -18.8926 67.8975 2.15558C49.079 58.9929 41.2614 117.376 44.6725 175.673C46.5388 207.36 51.7644 239.246 60.225 270.439C67.8975 298.719 78.2243 326.51 90.9151 353.04C101.677 375.528 114.182 397.164 128.075 417.353C139.014 433.237 151.404 448.988 164.893 464.185C173.519 473.9 182.146 482.796 190.482 491.402C202.499 503.798 213.852 515.514 222.499 527.019C237.066 546.449 245.413 570.661 247.31 598.98C248.98 624.044 248.586 649.728 248.212 674.568C248.046 685.108 247.891 695.999 247.891 706.579C247.891 743.332 236.641 788.48 215.345 837.141C195.22 883.094 167.63 929.431 135.54 971.131C109.35 1005.15 80.6401 1035.59 50.2196 1061.59C30.6546 1078.31 10.9549 1092.76 -9.98908 1105.77C-34.3027 1120.86 -45.8841 1126.43 -45.9981 1126.49L-45.9878 1126.5Z" fill="url(#paint25_linear_1751_49871)" fill-opacity="0.1"/>
<path d="M-125.14 1136.73L-125.928 1136.25L-126.529 1135.68C-123.616 1134.4 -120.816 1133.1 -118.048 1131.73C-105.451 1125.51 -92.5524 1117.63 -79.7061 1108.33C-48.2591 1085.53 -16.387 1053.33 12.4887 1015.21C45.2317 971.948 74.9991 920.157 98.5558 865.44C123.377 807.75 138.795 755.245 144.404 709.385C147.764 681.825 147.183 654.581 146.634 628.237C146.426 618.257 146.208 607.941 146.208 597.751C146.208 563.745 138.463 534.679 123.18 511.346C112.097 494.425 96.451 477.604 79.8929 459.792C73.2572 452.652 66.3934 445.269 59.5814 437.614C26.434 400.399 1.30129 364.088 -17.2476 326.614C-41.3746 277.821 -55.745 224.154 -58.8037 171.425C-61.6757 121.416 -54.9259 71.6061 -38.7307 23.3809C-27.1597 -11.0147 -10.7363 -44.4461 10.0729 -75.9886C26.1852 -100.405 41.4265 -118.706 52.8939 -131.921C74.3977 -156.707 87.047 -169.46 87.1714 -169.586L88.9755 -168.859C88.8511 -168.734 76.2329 -156.014 54.7602 -131.267C43.3136 -118.078 28.1137 -99.8173 12.0428 -75.4669C-8.72485 -44.0036 -25.1067 -10.6515 -36.6466 23.6583C-52.8108 71.7712 -59.5502 121.469 -56.6782 171.365C-53.6299 223.976 -39.3009 277.517 -15.2258 326.198C3.28163 363.586 28.3521 399.804 61.4166 436.941C68.2286 444.582 75.082 451.959 81.7177 459.098C98.307 476.957 113.984 493.818 125.13 510.824C140.516 534.322 148.324 563.566 148.324 597.751C148.324 607.928 148.541 618.244 148.749 628.217C149.298 654.595 149.879 681.864 146.509 709.49C140.889 755.437 125.441 808.028 100.588 865.796C77.0001 920.593 47.1913 972.464 14.3861 1015.81C-14.5622 1054.03 -46.5483 1086.34 -78.1198 1109.23C-91.0594 1118.61 -104.061 1126.54 -116.762 1132.81C-119.562 1134.19 -122.382 1135.51 -125.161 1136.73L-125.14 1136.73Z" fill="url(#paint26_linear_1751_49871)" fill-opacity="0.1"/>
<path d="M-124.933 1136.52L-125.928 1136.24L-126.841 1135.89L-124.892 1133.85C-123.233 1132.09 -121.563 1130.29 -119.904 1128.45C-116.545 1124.71 -113.165 1120.76 -109.858 1116.72C-96.0781 1099.85 -82.5268 1080.05 -69.5768 1057.85C-42.6814 1011.7 -18.7307 956.361 1.59114 893.362C21.239 832.424 35.4021 771.333 42.5459 716.702C45.4386 694.544 47.3982 673.027 48.3625 652.745L48.3936 652.177C49.2334 634.504 50.1147 616.223 50.1666 598.45C50.3014 554.841 45.3142 523.299 33.9817 496.181C23.1364 470.266 4.6394 445.268 -14.9359 418.804L-20.7629 410.912C-42.9821 380.743 -68.2393 344.294 -87.1199 302.666C-124.342 220.501 -130.77 125.372 -104.777 41.6875C-83.4703 -26.7405 -48.4462 -74.8402 -27.523 -103.582L-26.6521 -104.778C-7.31522 -131.341 3.44707 -145.87 3.55075 -146.016L5.47925 -145.434C5.37556 -145.289 -5.37634 -130.76 -24.7132 -104.21L-25.5841 -103.014C-46.4762 -74.3317 -81.4277 -26.3244 -102.683 41.9451C-128.614 125.431 -122.196 220.316 -85.067 302.283C-66.2278 343.812 -41.0122 380.208 -18.824 410.324L-12.997 418.217C6.61975 444.74 25.1479 469.79 36.0553 495.818C47.4397 523.061 52.4476 554.709 52.3128 598.444C52.2506 616.236 51.3797 634.523 50.5398 652.21L50.5087 652.784C49.5341 673.093 47.5745 694.63 44.6817 716.814C37.538 771.498 23.3645 832.642 3.69589 893.633C-16.657 956.698 -40.6285 1012.11 -67.5653 1058.32C-80.5464 1080.58 -94.1289 1100.43 -107.95 1117.34C-111.268 1121.4 -114.658 1125.36 -118.038 1129.11C-119.707 1130.97 -121.377 1132.78 -123.046 1134.55L-124.923 1136.51L-124.933 1136.52Z" fill="url(#paint27_linear_1751_49871)" fill-opacity="0.1"/>
<path d="M958.403 227.176V206.241H961.394V227.176H958.403ZM967.661 227.176V206.241H970.114L983.961 223.437H982.675V206.241H985.665V227.176H983.213L969.366 209.979H970.652V227.176H967.661ZM996.089 227.176V208.843H988.911V206.241H1006.23V208.843H999.05V227.176H996.089ZM1012.21 215.273H1022.97V217.815H1012.21V215.273ZM1012.48 224.574H1024.68V227.176H1009.48V206.241H1024.26V208.843H1012.48V224.574ZM1029.52 227.176V206.241H1037.68C1039.52 206.241 1041.08 206.53 1042.38 207.108C1043.68 207.686 1044.67 208.524 1045.37 209.62C1046.07 210.717 1046.42 212.023 1046.42 213.538C1046.42 215.053 1046.07 216.359 1045.37 217.456C1044.67 218.533 1043.68 219.36 1042.38 219.938C1041.08 220.516 1039.52 220.806 1037.68 220.806H1031.16L1032.51 219.43V227.176H1029.52ZM1043.52 227.176L1038.19 219.579H1041.39L1046.78 227.176H1043.52ZM1032.51 219.729L1031.16 218.263H1037.59C1039.51 218.263 1040.95 217.855 1041.93 217.037C1042.93 216.2 1043.43 215.033 1043.43 213.538C1043.43 212.043 1042.93 210.886 1041.93 210.069C1040.95 209.251 1039.51 208.843 1037.59 208.843H1031.16L1032.51 207.347V219.729ZM1051.25 227.176V206.241H1053.7L1067.55 223.437H1066.26V206.241H1069.25V227.176H1066.8L1052.95 209.979H1054.24V227.176H1051.25ZM1072.35 227.176L1081.83 206.241H1084.79L1094.3 227.176H1091.16L1082.7 207.916H1083.89L1075.43 227.176H1072.35ZM1076.39 221.942L1077.19 219.549H1088.98L1089.85 221.942H1076.39ZM1100.53 227.176V208.843H1093.35V206.241H1110.67V208.843H1103.49V227.176H1100.53ZM1113.93 227.176V206.241H1116.92V227.176H1113.93ZM1132.64 227.415C1131.04 227.415 1129.55 227.146 1128.18 226.608C1126.82 226.069 1125.65 225.322 1124.65 224.365C1123.65 223.388 1122.88 222.251 1122.32 220.955C1121.76 219.659 1121.48 218.244 1121.48 216.708C1121.48 215.173 1121.76 213.757 1122.32 212.461C1122.88 211.165 1123.65 210.039 1124.65 209.082C1125.65 208.105 1126.82 207.347 1128.18 206.809C1129.53 206.271 1131.02 206.002 1132.64 206.002C1134.23 206.002 1135.7 206.271 1137.03 206.809C1138.39 207.327 1139.56 208.075 1140.56 209.052C1141.58 210.009 1142.35 211.136 1142.89 212.432C1143.45 213.728 1143.73 215.153 1143.73 216.708C1143.73 218.263 1143.45 219.689 1142.89 220.985C1142.35 222.281 1141.58 223.417 1140.56 224.394C1139.56 225.351 1138.39 226.099 1137.03 226.637C1135.7 227.156 1134.23 227.415 1132.64 227.415ZM1132.64 224.753C1133.79 224.753 1134.86 224.554 1135.84 224.155C1136.83 223.756 1137.69 223.198 1138.41 222.48C1139.14 221.743 1139.71 220.885 1140.11 219.908C1140.53 218.931 1140.74 217.865 1140.74 216.708C1140.74 215.552 1140.53 214.485 1140.11 213.508C1139.71 212.531 1139.14 211.684 1138.41 210.966C1137.69 210.228 1136.83 209.66 1135.84 209.261C1134.86 208.863 1133.79 208.663 1132.64 208.663C1131.46 208.663 1130.37 208.863 1129.38 209.261C1128.4 209.66 1127.54 210.228 1126.8 210.966C1126.07 211.684 1125.49 212.531 1125.07 213.508C1124.67 214.485 1124.47 215.552 1124.47 216.708C1124.47 217.865 1124.67 218.931 1125.07 219.908C1125.49 220.885 1126.07 221.743 1126.8 222.48C1127.54 223.198 1128.4 223.756 1129.38 224.155C1130.37 224.554 1131.46 224.753 1132.64 224.753ZM1148.3 227.176V206.241H1150.75L1164.6 223.437H1163.32V206.241H1166.31V227.176H1163.85L1150.01 209.979H1151.29V227.176H1148.3ZM1169.4 227.176L1178.88 206.241H1181.84L1191.35 227.176H1188.21L1179.75 207.916H1180.95L1172.48 227.176H1169.4ZM1173.44 221.942L1174.25 219.549H1186.03L1186.9 221.942H1173.44ZM1194.48 227.176V206.241H1197.47V224.574H1208.8V227.176H1194.48ZM961.513 263.176V247.714H955.382V242.241H974.702V247.714H968.571V263.176H961.513ZM976.536 263.176V242.241H986.614C988.568 242.241 990.253 242.56 991.669 243.198C993.104 243.836 994.211 244.753 994.988 245.949C995.766 247.126 996.155 248.521 996.155 250.136C996.155 251.751 995.766 253.147 994.988 254.323C994.211 255.48 993.104 256.367 991.669 256.985C990.253 257.603 988.568 257.912 986.614 257.912H980.453L983.594 255.011V263.176H976.536ZM989.067 263.176L983.923 255.549H991.399L996.603 263.176H989.067ZM983.594 255.789L980.453 252.589H986.166C987.143 252.589 987.86 252.369 988.319 251.931C988.797 251.492 989.037 250.894 989.037 250.136C989.037 249.379 988.797 248.78 988.319 248.342C987.86 247.903 987.143 247.684 986.166 247.684H980.453L983.594 244.484V255.789ZM996.547 263.176L1005.7 242.241H1012.64L1021.79 263.176H1014.49L1007.73 245.59H1010.48L1003.72 263.176H996.547ZM1001.99 259.527L1003.78 254.443H1013.41L1015.21 259.527H1001.99ZM1022.92 263.176V242.241H1033.23C1035.57 242.241 1037.62 242.669 1039.39 243.527C1041.17 244.364 1042.55 245.56 1043.55 247.116C1044.55 248.671 1045.05 250.525 1045.05 252.678C1045.05 254.852 1044.55 256.726 1043.55 258.301C1042.55 259.856 1041.17 261.062 1039.39 261.92C1037.62 262.757 1035.57 263.176 1033.23 263.176H1022.92ZM1029.97 257.673H1032.93C1033.93 257.673 1034.8 257.483 1035.54 257.105C1036.29 256.726 1036.88 256.168 1037.3 255.43C1037.72 254.672 1037.93 253.755 1037.93 252.678C1037.93 251.622 1037.72 250.724 1037.3 249.987C1036.88 249.249 1036.29 248.691 1035.54 248.312C1034.8 247.933 1033.93 247.744 1032.93 247.744H1029.97V257.673ZM1054.08 250.017H1063.41V255.101H1054.08V250.017ZM1054.56 257.852H1065.03V263.176H1047.62V242.241H1064.64V247.564H1054.56V257.852ZM1087.57 263.654C1085.87 263.654 1084.31 263.395 1082.87 262.877C1081.46 262.338 1080.22 261.581 1079.17 260.604C1078.13 259.627 1077.32 258.47 1076.74 257.135C1076.16 255.799 1075.88 254.323 1075.88 252.708C1075.88 251.093 1076.16 249.618 1076.74 248.282C1077.32 246.946 1078.14 245.79 1079.2 244.813C1080.25 243.836 1081.5 243.088 1082.93 242.57C1084.39 242.031 1085.98 241.762 1087.72 241.762C1089.79 241.762 1091.64 242.111 1093.25 242.809C1094.89 243.507 1096.23 244.504 1097.29 245.8L1092.77 249.777C1092.12 249.02 1091.4 248.451 1090.62 248.073C1089.86 247.674 1089.01 247.475 1088.08 247.475C1087.3 247.475 1086.59 247.594 1085.95 247.833C1085.34 248.073 1084.81 248.422 1084.37 248.88C1083.93 249.339 1083.59 249.887 1083.35 250.525C1083.11 251.163 1082.99 251.891 1082.99 252.708C1082.99 253.486 1083.11 254.204 1083.35 254.862C1083.59 255.5 1083.93 256.048 1084.37 256.506C1084.81 256.965 1085.33 257.324 1085.92 257.583C1086.54 257.822 1087.23 257.942 1087.99 257.942C1088.79 257.942 1089.56 257.812 1090.32 257.553C1091.08 257.274 1091.89 256.806 1092.74 256.148L1096.69 260.993C1095.41 261.85 1093.96 262.508 1092.32 262.966C1090.69 263.425 1089.1 263.654 1087.57 263.654ZM1090.56 260.095V252.14H1096.69V260.993L1090.56 260.095ZM1099.7 263.176V242.241H1109.78C1111.73 242.241 1113.42 242.56 1114.83 243.198C1116.27 243.836 1117.37 244.753 1118.15 245.949C1118.93 247.126 1119.32 248.521 1119.32 250.136C1119.32 251.751 1118.93 253.147 1118.15 254.323C1117.37 255.48 1116.27 256.367 1114.83 256.985C1113.42 257.603 1111.73 257.912 1109.78 257.912H1103.62L1106.76 255.011V263.176H1099.7ZM1112.23 263.176L1107.09 255.549H1114.56L1119.77 263.176H1112.23ZM1106.76 255.789L1103.62 252.589H1109.33C1110.31 252.589 1111.02 252.369 1111.48 251.931C1111.96 251.492 1112.2 250.894 1112.2 250.136C1112.2 249.379 1111.96 248.78 1111.48 248.342C1111.02 247.903 1110.31 247.684 1109.33 247.684H1103.62L1106.76 244.484V255.789ZM1132.96 263.654C1131.26 263.654 1129.69 263.385 1128.23 262.847C1126.8 262.308 1125.55 261.551 1124.49 260.574C1123.44 259.577 1122.61 258.411 1122.01 257.075C1121.43 255.739 1121.15 254.283 1121.15 252.708C1121.15 251.113 1121.43 249.658 1122.01 248.342C1122.61 247.006 1123.44 245.85 1124.49 244.873C1125.55 243.876 1126.8 243.108 1128.23 242.57C1129.69 242.031 1131.26 241.762 1132.96 241.762C1134.67 241.762 1136.25 242.031 1137.68 242.57C1139.12 243.108 1140.37 243.876 1141.42 244.873C1142.48 245.85 1143.3 247.006 1143.87 248.342C1144.47 249.658 1144.77 251.113 1144.77 252.708C1144.77 254.283 1144.47 255.739 1143.87 257.075C1143.3 258.411 1142.48 259.577 1141.42 260.574C1140.37 261.551 1139.12 262.308 1137.68 262.847C1136.25 263.385 1134.67 263.654 1132.96 263.654ZM1132.96 257.942C1133.62 257.942 1134.22 257.822 1134.78 257.583C1135.36 257.344 1135.86 257.005 1136.28 256.566C1136.72 256.108 1137.06 255.559 1137.29 254.921C1137.53 254.263 1137.65 253.526 1137.65 252.708C1137.65 251.891 1137.53 251.163 1137.29 250.525C1137.06 249.867 1136.72 249.319 1136.28 248.88C1135.86 248.422 1135.36 248.073 1134.78 247.833C1134.22 247.594 1133.62 247.475 1132.96 247.475C1132.3 247.475 1131.68 247.594 1131.1 247.833C1130.55 248.073 1130.05 248.422 1129.61 248.88C1129.19 249.319 1128.86 249.867 1128.62 250.525C1128.38 251.163 1128.26 251.891 1128.26 252.708C1128.26 253.526 1128.38 254.263 1128.62 254.921C1128.86 255.559 1129.19 256.108 1129.61 256.566C1130.05 257.005 1130.55 257.344 1131.1 257.583C1131.68 257.822 1132.3 257.942 1132.96 257.942ZM1157.35 263.654C1154.14 263.654 1151.64 262.787 1149.85 261.052C1148.05 259.318 1147.15 256.885 1147.15 253.755V242.241H1154.21V253.546C1154.21 255.141 1154.5 256.277 1155.08 256.955C1155.66 257.613 1156.44 257.942 1157.41 257.942C1158.41 257.942 1159.19 257.613 1159.74 256.955C1160.32 256.277 1160.61 255.141 1160.61 253.546V242.241H1167.55V253.755C1167.55 256.885 1166.65 259.318 1164.86 261.052C1163.06 262.787 1160.56 263.654 1157.35 263.654ZM1170.79 263.176V242.241H1180.86C1182.82 242.241 1184.5 242.56 1185.92 243.198C1187.35 243.836 1188.46 244.753 1189.24 245.949C1190.02 247.126 1190.41 248.521 1190.41 250.136C1190.41 251.751 1190.02 253.147 1189.24 254.323C1188.46 255.5 1187.35 256.417 1185.92 257.075C1184.5 257.713 1182.82 258.032 1180.86 258.032H1174.7L1177.84 255.011V263.176H1170.79ZM1177.84 255.789L1174.7 252.589H1180.42C1181.39 252.589 1182.11 252.369 1182.57 251.931C1183.05 251.492 1183.29 250.894 1183.29 250.136C1183.29 249.379 1183.05 248.78 1182.57 248.342C1182.11 247.903 1181.39 247.684 1180.42 247.684H1174.7L1177.84 244.484V255.789Z" fill="white"/>
<path d="M914.343 176.5V292" stroke="white" stroke-width="1.2705"/>
<path fill-rule="evenodd" clip-rule="evenodd" d="M754.614 207.02C754.13 207.118 753.481 207.471 753.163 207.809C753.045 207.935 752.847 208.256 752.724 208.523L752.499 209.008L752.47 235.398C752.448 255.766 752.468 261.918 752.56 262.36C752.731 263.188 753.154 263.76 753.86 264.119L754.439 264.412H759.33H764.221L764.661 264.183C765.262 263.869 765.515 263.621 765.818 263.051L766.077 262.565L766.107 236.03C766.128 217.053 766.106 209.352 766.03 208.997C765.842 208.124 765.251 207.451 764.368 207.106C764.098 207.001 763.078 206.968 759.532 206.953C757.061 206.943 754.848 206.973 754.614 207.02Z" fill="#F9F9F9"/>
<path fill-rule="evenodd" clip-rule="evenodd" d="M775.984 207.019C775.032 207.212 774.25 207.902 773.995 208.775C773.781 209.505 773.775 216.159 773.987 216.88C774.162 217.477 774.587 218.007 775.169 218.354L775.617 218.621L781.646 218.67L787.676 218.718L787.724 240.57C787.768 260.731 787.784 262.449 787.932 262.78C788.201 263.382 788.834 263.995 789.412 264.215C789.909 264.403 790.14 264.412 794.417 264.412C798.323 264.412 798.964 264.392 799.39 264.252C800.015 264.048 800.568 263.566 800.853 262.979L801.077 262.519L801.124 240.619L801.172 218.718L807.202 218.67C811.734 218.633 813.299 218.591 813.502 218.5C814.311 218.135 814.819 217.399 815.004 216.326C815.078 215.892 815.102 214.611 815.076 212.393C815.043 209.591 815.014 209.038 814.874 208.661C814.637 208.019 814.214 207.551 813.589 207.24L813.041 206.967L794.711 206.952C784.63 206.945 776.203 206.974 775.984 207.019Z" fill="#F9F9F9"/>
<path fill-rule="evenodd" clip-rule="evenodd" d="M844.317 206.103C835.353 206.783 827.29 211.755 822.476 219.572C819.378 224.603 817.895 230.349 818.068 236.654C818.154 239.771 818.582 242.29 819.509 245.141C822.265 253.614 828.091 259.964 836.172 263.304C838.367 264.21 840.447 264.771 843.151 265.183C844.501 265.389 849.362 265.361 850.983 265.137C856.428 264.385 860.791 262.538 864.369 259.469C870.408 254.289 873.626 246.761 873.829 237.333C873.875 235.215 873.866 235.03 873.696 234.714C873.429 234.215 872.753 233.786 872.033 233.658C871.191 233.509 848.061 233.506 847.378 233.656C846.684 233.808 846.071 234.271 845.722 234.908L845.429 235.442L845.4 238.432C845.368 241.781 845.402 242.026 845.997 242.737C846.179 242.953 846.545 243.227 846.825 243.357L847.328 243.589L853.57 243.616C857.003 243.631 859.812 243.663 859.812 243.688C859.812 243.712 859.678 244.158 859.516 244.679C858.342 248.429 855.475 251.427 851.757 252.792C849.986 253.441 847.213 253.761 845.287 253.538C841.204 253.065 838.012 251.226 835.319 247.797C833.343 245.279 832.085 242.217 831.66 238.885C831.291 235.993 831.429 232.915 832.039 230.445C832.891 226.992 834.502 224.146 836.949 221.766C838.976 219.796 841.072 218.658 843.77 218.064C845.015 217.79 848.392 217.816 849.719 218.11C853.352 218.915 855.827 220.727 857.821 224.043C858.538 225.234 859.018 225.736 859.812 226.122L860.429 226.422L865.307 226.45C870.512 226.48 870.898 226.454 871.552 226.021C872.481 225.406 872.67 224.433 872.154 222.93C871.456 220.903 869.822 217.877 868.338 215.867C867.587 214.849 865.208 212.418 864.227 211.665C860.285 208.642 856.184 206.973 851.039 206.298C849.32 206.073 845.996 205.976 844.317 206.103Z" fill="#F9F9F9"/>
<path fill-rule="evenodd" clip-rule="evenodd" d="M676.487 138.054C676.373 138.25 672.631 145.579 671.261 148.288C670.803 149.192 669.718 151.325 668.848 153.027C667.979 154.729 666.914 156.818 666.483 157.669C666.052 158.52 664.966 160.653 664.07 162.408C663.175 164.163 662.067 166.339 661.609 167.244C661.152 168.148 660.044 170.324 659.148 172.079C658.253 173.835 656.4 177.469 655.032 180.155C653.664 182.841 651.548 186.992 650.33 189.379C649.112 191.766 648.131 193.735 648.149 193.754C648.168 193.772 648.713 193.233 649.36 192.555C651.896 189.898 653.592 188.111 656.313 185.232C658.891 182.503 661.741 179.491 670.499 170.243C672.161 168.487 674.088 166.461 674.781 165.741C675.474 165.022 676.107 164.336 676.188 164.218C676.268 164.1 676.385 164.007 676.448 164.011C676.509 164.015 678.008 165.671 679.778 167.691C681.547 169.711 683.233 171.633 683.524 171.963C687.391 176.348 696.352 186.529 697.332 187.651C700.244 190.987 702.752 193.797 702.786 193.762C702.807 193.741 702.337 192.706 701.743 191.461C701.149 190.216 699.876 187.522 698.914 185.474C696.767 180.903 693.806 174.61 692.884 172.66C692.507 171.862 691.379 169.468 690.377 167.341C689.375 165.213 687.438 161.1 686.072 158.201C684.706 155.302 682.831 151.32 681.906 149.352C680.981 147.384 679.832 144.947 679.352 143.936C678.872 142.925 678.054 141.184 677.533 140.067C677.013 138.95 676.575 138.023 676.56 138.006C676.544 137.989 676.511 138.011 676.487 138.054ZM675.517 181.005C674.367 182.147 670.912 185.614 666.435 190.119C664.821 191.742 661.031 195.549 658.013 198.578C654.994 201.607 651.374 205.242 649.969 206.655C648.563 208.068 644.944 211.703 641.925 214.731C638.906 217.759 635.308 221.371 633.929 222.757C632.549 224.144 628.93 227.778 625.885 230.834C619.607 237.134 615.988 240.769 612.646 244.13C611.376 245.407 610.255 246.531 610.154 246.629C610.054 246.726 609.985 246.82 610.003 246.837C610.031 246.864 613.551 246.785 628.771 246.414L632.651 246.32L637.671 251.463C640.432 254.292 648.074 262.155 654.653 268.938C661.232 275.719 668.754 283.464 671.369 286.148L676.125 291.028L679.181 287.937C680.862 286.238 683.473 283.606 684.982 282.09C686.492 280.574 689.196 277.853 690.992 276.043C692.787 274.233 697.356 269.646 701.144 265.849C704.932 262.053 708.02 258.914 708.005 258.874C707.905 258.603 673.279 223.302 673.028 223.215C672.986 223.2 670.976 225.184 668.559 227.623L664.165 232.059L677.46 245.71C684.772 253.218 690.768 259.401 690.784 259.451C690.808 259.525 681.26 269.283 677.29 273.24L676.127 274.399L674.401 272.611C670.735 268.816 648.396 245.8 643.444 240.717L638.235 235.368L642.824 230.717C645.348 228.16 649.862 223.58 652.855 220.541C660.302 212.978 670.821 202.312 673.917 199.184L676.477 196.598L685.224 205.615C690.035 210.575 698.562 219.359 704.173 225.135L714.375 235.638L718.085 235.701C720.125 235.735 723.753 235.792 726.147 235.826L730.5 235.888L727.234 232.514C725.438 230.658 722.393 227.508 720.468 225.514C718.543 223.519 716.947 221.866 716.921 221.839C711.929 216.677 696.453 200.637 689.813 193.743C686.277 190.073 681.875 185.518 680.03 183.621C678.186 181.724 676.649 180.127 676.616 180.072C676.583 180.018 676.089 180.437 675.517 181.005Z" fill="#F9F9F9"/>
</g>
</g>
<defs>
<linearGradient id="paint0_linear_1751_49871" x1="-174.592" y1="468.175" x2="1954.38" y2="468.175" gradientUnits="userSpaceOnUse">
<stop stop-color="#A394FD"/>
<stop offset="1" stop-color="#F68CF8"/>
</linearGradient>
<linearGradient id="paint1_linear_1751_49871" x1="-65.3423" y1="465.417" x2="1893.23" y2="465.417" gradientUnits="userSpaceOnUse">
<stop stop-color="#A394FD"/>
<stop offset="1" stop-color="#F68CF8"/>
</linearGradient>
<linearGradient id="paint2_linear_1751_49871" x1="-79.6614" y1="435.609" x2="1873.71" y2="435.609" gradientUnits="userSpaceOnUse">
<stop stop-color="#A394FD"/>
<stop offset="1" stop-color="#F68CF8"/>
</linearGradient>
<linearGradient id="paint3_linear_1751_49871" x1="-103.772" y1="404.727" x2="1862.62" y2="404.727" gradientUnits="userSpaceOnUse">
<stop stop-color="#A394FD"/>
<stop offset="1" stop-color="#F68CF8"/>
</linearGradient>
<linearGradient id="paint4_linear_1751_49871" x1="-131.697" y1="363.206" x2="1861.61" y2="363.206" gradientUnits="userSpaceOnUse">
<stop stop-color="#A394FD"/>
<stop offset="1" stop-color="#F68CF8"/>
</linearGradient>
<linearGradient id="paint5_linear_1751_49871" x1="-156.464" y1="295.55" x2="1863.04" y2="295.55" gradientUnits="userSpaceOnUse">
<stop stop-color="#A394FD"/>
<stop offset="1" stop-color="#F68CF8"/>
</linearGradient>
<linearGradient id="paint6_linear_1751_49871" x1="-171.461" y1="179.791" x2="1868.16" y2="179.791" gradientUnits="userSpaceOnUse">
<stop stop-color="#A394FD"/>
<stop offset="1" stop-color="#F68CF8"/>
</linearGradient>
<linearGradient id="paint7_linear_1751_49871" x1="-172.673" y1="55.6194" x2="1877.19" y2="55.6194" gradientUnits="userSpaceOnUse">
<stop stop-color="#A394FD"/>
<stop offset="1" stop-color="#F68CF8"/>
</linearGradient>
<linearGradient id="paint8_linear_1751_49871" x1="-159.933" y1="-39.0949" x2="1890.47" y2="-39.0949" gradientUnits="userSpaceOnUse">
<stop stop-color="#A394FD"/>
<stop offset="1" stop-color="#F68CF8"/>
</linearGradient>
<linearGradient id="paint9_linear_1751_49871" x1="-136.392" y1="-94.6223" x2="1897.25" y2="-94.6223" gradientUnits="userSpaceOnUse">
<stop stop-color="#A394FD"/>
<stop offset="1" stop-color="#F68CF8"/>
</linearGradient>
<linearGradient id="paint10_linear_1751_49871" x1="1738.35" y1="455.314" x2="1880.86" y2="455.314" gradientUnits="userSpaceOnUse">
<stop stop-color="#A394FD"/>
<stop offset="1" stop-color="#F68CF8"/>
</linearGradient>
<linearGradient id="paint11_linear_1751_49871" x1="1638.32" y1="458.673" x2="1877.47" y2="458.673" gradientUnits="userSpaceOnUse">
<stop stop-color="#A394FD"/>
<stop offset="1" stop-color="#F68CF8"/>
</linearGradient>
<linearGradient id="paint12_linear_1751_49871" x1="1537.82" y1="462.768" x2="1878.91" y2="462.768" gradientUnits="userSpaceOnUse">
<stop stop-color="#A394FD"/>
<stop offset="1" stop-color="#F68CF8"/>
</linearGradient>
<linearGradient id="paint13_linear_1751_49871" x1="1437.76" y1="480.729" x2="1717.29" y2="480.729" gradientUnits="userSpaceOnUse">
<stop stop-color="#A394FD"/>
<stop offset="1" stop-color="#F68CF8"/>
</linearGradient>
<linearGradient id="paint14_linear_1751_49871" x1="1339.92" y1="494.926" x2="1505" y2="494.926" gradientUnits="userSpaceOnUse">
<stop stop-color="#A394FD"/>
<stop offset="1" stop-color="#F68CF8"/>
</linearGradient>
<linearGradient id="paint15_linear_1751_49871" x1="1127.93" y1="501.95" x2="1303.08" y2="501.95" gradientUnits="userSpaceOnUse">
<stop stop-color="#A394FD"/>
<stop offset="1" stop-color="#F68CF8"/>
</linearGradient>
<linearGradient id="paint16_linear_1751_49871" x1="974.965" y1="502.05" x2="1157.62" y2="502.05" gradientUnits="userSpaceOnUse">
<stop stop-color="#A394FD"/>
<stop offset="1" stop-color="#F68CF8"/>
</linearGradient>
<linearGradient id="paint17_linear_1751_49871" x1="870.811" y1="497.317" x2="1102.46" y2="497.317" gradientUnits="userSpaceOnUse">
<stop stop-color="#A394FD"/>
<stop offset="1" stop-color="#F68CF8"/>
</linearGradient>
<linearGradient id="paint18_linear_1751_49871" x1="800.213" y1="488.735" x2="1063.74" y2="488.735" gradientUnits="userSpaceOnUse">
<stop stop-color="#A394FD"/>
<stop offset="1" stop-color="#F68CF8"/>
</linearGradient>
<linearGradient id="paint19_linear_1751_49871" x1="747.596" y1="478.472" x2="1022.06" y2="478.472" gradientUnits="userSpaceOnUse">
<stop stop-color="#A394FD"/>
<stop offset="1" stop-color="#F68CF8"/>
</linearGradient>
<linearGradient id="paint20_linear_1751_49871" x1="697.369" y1="466.775" x2="955.619" y2="466.775" gradientUnits="userSpaceOnUse">
<stop stop-color="#A394FD"/>
<stop offset="1" stop-color="#F68CF8"/>
</linearGradient>
<linearGradient id="paint21_linear_1751_49871" x1="633.939" y1="455.049" x2="850.34" y2="455.049" gradientUnits="userSpaceOnUse">
<stop stop-color="#A394FD"/>
<stop offset="1" stop-color="#F68CF8"/>
</linearGradient>
<linearGradient id="paint22_linear_1751_49871" x1="516.067" y1="447.402" x2="685.305" y2="447.402" gradientUnits="userSpaceOnUse">
<stop stop-color="#A394FD"/>
<stop offset="1" stop-color="#F68CF8"/>
</linearGradient>
<linearGradient id="paint23_linear_1751_49871" x1="337.861" y1="448.015" x2="448.382" y2="448.015" gradientUnits="userSpaceOnUse">
<stop stop-color="#A394FD"/>
<stop offset="1" stop-color="#F68CF8"/>
</linearGradient>
<linearGradient id="paint24_linear_1751_49871" x1="138.453" y1="457.63" x2="350.215" y2="457.63" gradientUnits="userSpaceOnUse">
<stop stop-color="#A394FD"/>
<stop offset="1" stop-color="#F68CF8"/>
</linearGradient>
<linearGradient id="paint25_linear_1751_49871" x1="-49.0408" y1="475.408" x2="251.825" y2="475.408" gradientUnits="userSpaceOnUse">
<stop stop-color="#A394FD"/>
<stop offset="1" stop-color="#F68CF8"/>
</linearGradient>
<linearGradient id="paint26_linear_1751_49871" x1="-128.177" y1="492.393" x2="152.232" y2="492.393" gradientUnits="userSpaceOnUse">
<stop stop-color="#A394FD"/>
<stop offset="1" stop-color="#F68CF8"/>
</linearGradient>
<linearGradient id="paint27_linear_1751_49871" x1="-127.911" y1="503.908" x2="54.3049" y2="503.908" gradientUnits="userSpaceOnUse">
<stop stop-color="#A394FD"/>
<stop offset="1" stop-color="#F68CF8"/>
</linearGradient>
<clipPath id="clip0_1751_49871">
<rect width="1840" height="430" fill="white"/>
</clipPath>
<clipPath id="clip1_1751_49871">
<rect width="1840" height="430" fill="white"/>
</clipPath>
</defs>
</svg>
